<?xml version="1.0" encoding="UTF-8" standalone="no"?>
<!-- Created with Inkscape (http://www.inkscape.org/) -->

<svg
   width="79mm"
   height="79mm"
   viewBox="0 0 79.000002 79"
   version="1.1"
   id="svg1"
   xml:space="preserve"
   inkscape:version="1.4 (86a8ad7, 2024-10-11)"
   sodipodi:docname="title-letters_color_alt-bg.svg"
   inkscape:export-filename="title-letters_color-C.svg"
   inkscape:export-xdpi="96"
   inkscape:export-ydpi="96"
   inkscape:export-batch-path="C:\Users\tarus.000\Documents\speksi\title-letters"
   inkscape:export-batch-name="title-letters-light-bg"
   xmlns:inkscape="http://www.inkscape.org/namespaces/inkscape"
   xmlns:sodipodi="http://sodipodi.sourceforge.net/DTD/sodipodi-0.dtd"
   xmlns="http://www.w3.org/2000/svg"
   xmlns:svg="http://www.w3.org/2000/svg"><sodipodi:namedview
     id="namedview1"
     pagecolor="#505050"
     bordercolor="#eeeeee"
     borderopacity="1"
     inkscape:showpageshadow="0"
     inkscape:pageopacity="0"
     inkscape:pagecheckerboard="0"
     inkscape:deskcolor="#505050"
     inkscape:document-units="mm"
     inkscape:zoom="0.38592232"
     inkscape:cx="159.35849"
     inkscape:cy="905.62266"
     inkscape:window-width="1920"
     inkscape:window-height="1013"
     inkscape:window-x="-9"
     inkscape:window-y="-9"
     inkscape:window-maximized="1"
     inkscape:current-layer="g75" /><defs
     id="defs1" /><g
     inkscape:groupmode="layer"
     id="g2"
     inkscape:label="L"
     transform="translate(-22.983803,-108.65396)"
     style="display:inline;opacity:1"><rect
       style="fill:#f5e1bc;fill-opacity:1;stroke:#504227;stroke-width:2;stroke-dasharray:none;stroke-opacity:1"
       id="rect2"
       width="77"
       height="77"
       x="23.983803"
       y="109.65396" /><path
       id="path9"
       style="display:inline;fill:#516035;fill-opacity:1;stroke:#504227;stroke-width:2;stroke-dasharray:none;stroke-opacity:1"
       d="m 79.409243,118.4117 c -6.120227,-0.0689 -17.480239,0.52369 -31.360876,0.34262 l -0.01705,-5.2e-4 -11.868526,5.2e-4 c -0.0049,-1.5e-4 -0.01101,1.5e-4 -0.01602,0 -0.402458,-0.0117 -0.91969,-0.0105 -1.494483,-0.003 -1.724378,0.0223 -4.291371,0.10048 -5.508707,0.0532 0.190224,0.21363 2.354188,3.21192 4.621423,7.98504 1.583824,3.33437 1.856435,15.30033 1.890841,20.29178 0.03547,5.14587 -0.923105,19.26069 -1.891358,23.42131 -0.968253,4.16062 -1.603345,5.47259 -4.620906,8.91212 1.628157,-0.0633 5.351995,0.0485 6.960298,0 l 8.334375,-0.0636 0.0026,0.0723 c 12.309808,0.0129 18.945377,-0.001 32.211988,0 7.547935,6.5e-4 12.073033,1.06563 16.621207,-1.56217 3.653598,-2.1109 3.930343,-9.76859 0.04496,-12.1357 -4.020135,-2.44917 -10.217933,0.41422 -9.398393,5.90352 0.437873,2.9328 5.425554,4.85875 2.313554,5.16144 -2.282763,0.22204 -8.637702,-5.19994 -11.155908,-8.06721 -2.518209,-2.86726 -6.152059,-5.93825 -10.052617,-5.83892 -3.900559,0.0993 -8.141311,3.19309 -10.804508,5.95984 -0.966709,1.0043 -2.216628,1.73881 -4.415235,2.94608 0.03661,-11.64036 0.08467,-23.99235 0.330213,-28.38432 0.299353,-5.35456 -0.01573,-13.67347 4.142899,-17.17414 5.634823,-4.74331 22.023862,-2.79567 29.402857,-7.4781 -0.775045,-0.22309 -2.232532,-0.31914 -4.272608,-0.3421 z"
       sodipodi:nodetypes="sccccccsssccccsssssssscsscss"
       inkscape:label="L" /><path
       d="m 114.32582,147.68806 c 4.67087,3.65354 7.59347,9.45589 9.64772,9.25832 2.80048,-0.26933 -1.68807,-1.98267 -2.08211,-4.5923 -0.7375,-4.88441 4.83954,-7.43245 8.45725,-5.25315 3.49646,2.10626 2.72926,9.21633 -0.5586,11.09462 -4.28394,2.44733 -8.12539,2.28369 -14.95788,-1.63385"
       style="display:none;fill:#e91e90;fill-opacity:1;stroke:#504227;stroke-width:0;stroke-dasharray:none;stroke-opacity:1"
       id="path1-2" /><path
       style="fill:none;fill-opacity:1;stroke:#504227;stroke-width:1.5;stroke-dasharray:none;stroke-opacity:1"
       d="m 27.092497,121.81044 c 0,0 2.732516,4.1245 3.461139,6.45456 1.882754,6.02086 2.151521,18.80241 2.151521,18.80241 0,0 -3.921136,-2.21962 -5.051396,-3.64823 -1.55751,-1.96863 -0.800562,-8.34003 0.841899,-9.07379 1.390643,-0.62127 1.309623,7.38999 1.309623,7.38999"
       id="path55"
       sodipodi:nodetypes="cscssc" /><path
       style="display:inline;opacity:1;fill:none;fill-opacity:1;stroke:#504227;stroke-width:1.5;stroke-dasharray:none;stroke-opacity:1"
       d="m 26.877785,177.74527 c 0,0 2.732516,-4.1245 3.461139,-6.45456 1.882754,-6.02086 2.151521,-18.80241 2.151521,-18.80241 0,0 -3.921136,2.21962 -5.051396,3.64823 -1.55751,1.96863 -0.800562,8.34003 0.841899,9.07379 1.390643,0.62127 1.309623,-7.38999 1.309623,-7.38999"
       id="path55-0"
       sodipodi:nodetypes="cscssc" /><path
       style="fill:none;fill-opacity:1;stroke:#504227;stroke-width:1.5;stroke-dasharray:none;stroke-opacity:1"
       d="m 26.998951,146.4126 4.770763,3.55469 -4.677217,3.27405 z"
       id="path56"
       sodipodi:nodetypes="cccc" /><path
       style="fill:none;fill-opacity:1;stroke:#504227;stroke-width:1.5;stroke-dasharray:none;stroke-opacity:1"
       d="m 28.402119,183.17553 c 0,0 39.468782,-0.66927 59.400651,-0.28064 3.236553,0.0631 9.0738,-3.46114 9.0738,-3.46114 0,0 1.239349,2.68686 0.467721,3.46115 -0.727681,0.73019 -3.086963,0.46771 -3.086963,0.46771"
       id="path58"
       sodipodi:nodetypes="cscsc" /><path
       style="fill:none;fill-opacity:1;stroke:#504227;stroke-width:1.5;stroke-dasharray:none;stroke-opacity:1"
       d="m 28.589206,113.76563 c 0,0 47.045732,0.082 58.091032,0.28063 1.780099,0.032 2.558288,2.93774 4.189579,4.60519 1.660186,1.69699 4.17053,2.14822 5.643411,1.24655 1.243553,-0.76129 2.376023,-3.04466 0.643975,-6.13237 -0.871676,-1.55392 -4.342817,-1.85606 -5.332026,-0.37418 -0.619373,0.92785 2.432151,3.46114 2.432151,3.46114"
       id="path59"
       sodipodi:nodetypes="csssssc" /><path
       style="fill:none;stroke:#504227;stroke-width:1.7;stroke-dasharray:none;stroke-opacity:1"
       d="m 78.261249,144.07399 c 0,0 1.843497,1.73414 2.993419,1.49671 1.363617,-0.28156 2.359215,-0.53777 2.993418,-1.77733 0.923604,-1.8052 0.889206,-4.36185 -0.187088,-6.08039 -0.78471,-1.25296 -4.30304,-2.05797 -3.928862,-2.05797 0.374177,0 1.781883,-1.95375 1.870886,-3.18051 0.131564,-1.81341 -0.691324,-3.85222 -2.057975,-5.05139 -1.478075,-1.29694 -3.861614,-2.17807 -5.706205,-1.49671 -1.744472,0.64438 -3.180507,3.12846 -3.180507,3.12846 0,0 -1.258751,-2.31779 -2.899874,-2.94137 -2.142343,-0.81403 -5.393469,-0.14472 -6.641648,1.77734 -1.083286,1.66814 0.935443,5.89329 0.935443,5.89329 0,0 -2.109812,-0.7475 -2.899874,-0.18709 -1.795686,1.27371 -2.635186,4.33347 -1.777343,6.36102 0.636106,1.50346 2.677124,2.48498 4.30304,2.33861 1.833349,-0.16505 5.36137,-2.40282 5.36137,-2.40282 0,0 3.046025,3.85434 3.554685,6.17393 0.442634,2.0185 0.244594,4.27107 -0.561265,6.17393 -1.379591,3.2576 -7.980614,6.98648 -7.980614,6.98648 0,0 6.208582,0.1761 8.541879,1.05833 2.644976,1.00008 6.361015,5.61266 6.361015,5.61266 0,0 -3.008595,-6.23248 -2.80633,-9.54152 0.153377,-2.50925 1.233453,-5.15915 1.122532,-7.67063 -0.04713,-1.06712 -1.414314,-4.76908 -3.743019,-9.20894 1.070311,0.33907 4.444296,1.51058 5.264981,0.26717 0.892763,-1.3526 -1.683346,-4.71784 -2.454565,-5.79704 -0.707739,-0.99037 -5.484643,0.1761 -5.969609,1.31381 -0.487974,1.14476 4.160079,1.79616 4.160079,1.79616"
       id="path7"
       sodipodi:nodetypes="cssssssscsscssscsscscsscsssc" /><path
       style="fill:none;stroke:#504227;stroke-width:1.5;stroke-dasharray:none;stroke-opacity:1"
       d="m 53.472001,163.81185 0.561265,-21.42165 c 0,0 4.03727,3.61705 6.548102,3.74177 1.90991,0.0949 6.080384,-1.30962 5.986838,-1.59026 -0.09354,-0.28063 0.21181,3.08319 -0.374176,4.86431 -1.493533,4.53963 -9.635068,9.16735 -9.635068,9.16735 l 10e-7,-11.13178 c 0,0 1.838596,1.59602 3.13041,1.7112 1.169128,0.10424 3.16916,-0.56596 3.16916,-0.56596 0,0 -0.861277,2.15793 -1.963646,3.14967 -0.620285,0.55804 -2.268549,1.65319 -2.268549,1.65319"
       id="path10"
       sodipodi:nodetypes="ccsssccscsc" /><path
       style="fill:none;stroke:#504227;stroke-width:1.5;stroke-dasharray:none;stroke-opacity:1"
       d="m 93.789606,128.35855 c 0,0 -3.925932,-2.98171 -4.864304,-1.96443 -1.430786,1.5511 1.376071,4.79919 3.180506,5.89329 1.968371,1.19351 3.609395,1.13951 5.051395,-0.65481 1.742376,-2.16808 -0.561266,-8.32545 -0.561266,-8.32545 0,0 -2.765267,0.75461 -4.11595,0.46773 -1.804726,-0.38332 -4.770761,-2.80634 -4.770761,-2.80634 0,0 -3.976263,2.40015 -3.83532,4.49013 0.260228,3.85882 6.289541,10.89643 6.454562,15.34128 0.104553,2.81614 -0.79526,4.97175 -2.993419,6.73519 -1.593424,1.27829 -4.494346,1.55001 -6.173926,2.71278 -1.649771,1.14214 -3.082046,3.8485 -2.993419,5.79976 0.07626,1.67904 2.525698,10.85114 2.525698,10.85114 0,0 2.888905,-4.45004 5.144938,-5.61266 2.262155,-1.16577 5.098813,-1.51382 7.577091,-0.93545 1.271731,0.29679 3.274052,2.15152 3.274052,2.15152 0,0 1.603123,-7.42432 -0.09354,-10.47696 -0.735429,-1.32319 -2.325474,-2.32241 -3.835318,-2.43216 -3.508171,-0.25501 -7.538196,1.47896 -9.635067,4.30304 -1.030611,1.38803 -0.65481,5.14494 -0.65481,5.14494 0,0 3.723819,-2.60537 5.893293,-2.89987 1.824033,-0.24761 5.425572,1.02899 5.425572,1.02899 0,0 0.38455,-2.42039 -0.309726,-3.26474 -0.840684,-1.0224 -3.806225,-1.13185 -3.806225,-1.13185"
       id="path11"
       sodipodi:nodetypes="cssscscssssscsscssscscsc" /><path
       style="fill:none;stroke:#504227;stroke-width:1.3;stroke-dasharray:none;stroke-opacity:1"
       d="m 91.170366,135.18729 c 0,0 2.209352,1.53118 3.367597,1.4967 1.226674,-0.0365 3.27405,-1.68379 3.27405,-1.68379 v 13.00266 c 0,0 -1.83205,-1.68944 -2.993417,-1.96443 -1.313517,-0.31102 -3.086964,0 -3.086964,0 0,0 1.903187,-3.17146 1.96443,-5.33203 0.0558,-1.96858 -2.525696,-5.51911 -2.525696,-5.51911 z"
       id="path12"
       sodipodi:nodetypes="csccscsc" /><path
       sodipodi:type="star"
       style="display:inline;opacity:1;fill:#d5a03a;fill-opacity:1;stroke:#7e3a91;stroke-width:0;stroke-dasharray:none;stroke-opacity:1"
       id="path46-7"
       inkscape:flatsided="false"
       sodipodi:sides="4"
       sodipodi:cx="34.973221"
       sodipodi:cy="49.138069"
       sodipodi:r1="10.366878"
       sodipodi:r2="4.5406928"
       sodipodi:arg1="-0.0071427357"
       sodipodi:arg2="0.76627808"
       inkscape:rounded="0.02"
       inkscape:randomized="0"
       d="m 45.339834,49.064022 c 0.003,0.155826 -6.985643,3.111839 -7.095059,3.222829 -0.110843,0.112438 -3.039648,7.214812 -3.197507,7.217831 -0.155826,0.003 -3.111839,-6.985643 -3.222829,-7.095059 -0.112438,-0.110843 -7.214812,-3.039648 -7.217831,-3.197507 -0.003,-0.155826 6.985643,-3.111838 7.095059,-3.222828 0.110843,-0.112438 3.039648,-7.214813 3.197507,-7.217832 0.155826,-0.003 3.111838,6.985643 3.222828,7.095059 0.112438,0.110843 7.214813,3.039648 7.217832,3.197507 z"
       transform="matrix(0,0.66152121,-0.44213021,0,64.808594,124.4415)" /></g></svg>
