<?xml version="1.0" encoding="UTF-8" standalone="no"?>
<!-- Created with Inkscape (http://www.inkscape.org/) -->

<svg
   width="79mm"
   height="79mm"
   viewBox="0 0 79.000002 79"
   version="1.1"
   id="svg1"
   xml:space="preserve"
   inkscape:version="1.4 (86a8ad7, 2024-10-11)"
   sodipodi:docname="title-letters_color.svg"
   inkscape:export-filename="title-letters_color-C.svg"
   inkscape:export-xdpi="96"
   inkscape:export-ydpi="96"
   inkscape:export-batch-path="C:\Users\tarus.000\Documents\speksi\title-letters"
   inkscape:export-batch-name="title-letters"
   xmlns:inkscape="http://www.inkscape.org/namespaces/inkscape"
   xmlns:sodipodi="http://sodipodi.sourceforge.net/DTD/sodipodi-0.dtd"
   xmlns="http://www.w3.org/2000/svg"
   xmlns:svg="http://www.w3.org/2000/svg"><sodipodi:namedview
     id="namedview1"
     pagecolor="#505050"
     bordercolor="#eeeeee"
     borderopacity="1"
     inkscape:showpageshadow="0"
     inkscape:pageopacity="0"
     inkscape:pagecheckerboard="0"
     inkscape:deskcolor="#505050"
     inkscape:document-units="mm"
     inkscape:zoom="0.38592232"
     inkscape:cx="159.35849"
     inkscape:cy="897.84908"
     inkscape:window-width="1920"
     inkscape:window-height="1013"
     inkscape:window-x="-9"
     inkscape:window-y="-9"
     inkscape:window-maximized="1"
     inkscape:current-layer="g85" /><defs
     id="defs1"><inkscape:path-effect
       effect="mirror_symmetry"
       start_point="87.688493,50.994827"
       end_point="58.513881,50.994827"
       center_point="73.101187,50.994827"
       id="path-effect69"
       is_visible="true"
       lpeversion="1.2"
       lpesatellites=""
       mode="free"
       discard_orig_path="false"
       fuse_paths="true"
       oposite_fuse="false"
       split_items="false"
       split_open="false"
       link_styles="false" /></defs><g
     inkscape:groupmode="layer"
     id="g68"
     inkscape:label="G"
     transform="translate(-116.1364,-107.90219)"
     style="display:inline;opacity:1"><rect
       style="display:inline;fill:#e0bf92;fill-opacity:1;stroke:#504227;stroke-width:2;stroke-dasharray:none;stroke-opacity:1"
       id="rect8"
       width="77"
       height="77"
       x="117.1364"
       y="108.90219" /><path
       d="m 27.797169,50.994827 c 0.01244,4.200705 0.644047,8.503172 1.692246,12.574734 0.349468,1.357454 4.553307,16.128354 22.916658,20.038376 8.316907,1.77088 15.307559,0.0174 20.334392,-3.914569 4.670873,-3.653543 7.593471,-9.455895 9.647729,-9.258327 2.800471,0.269335 -1.688078,1.982675 -2.08211,4.592302 -0.737506,4.884411 4.839536,7.432454 8.457246,5.25315 3.49646,-2.106258 3.270816,-9.448997 0.057,-11.623476 -4.08626,-2.764781 -8.740992,-1.754838 -15.573481,2.162707 -6.888032,3.949393 -12.511511,3.6858 -16.923595,0.820651 -4.283654,-2.781748 -8.958238,-7.109251 -9.357963,-20.645548 0.399725,-13.536297 5.074309,-17.8638 9.357963,-20.645548 4.412084,-2.865149 10.035563,-3.128742 16.923595,0.820651 6.832489,3.917545 11.487221,4.927488 15.573481,2.162707 3.213816,-2.174479 3.43946,-9.517218 -0.057,-11.623476 -3.61771,-2.179304 -9.194752,0.368739 -8.457246,5.25315 0.394032,2.609627 4.882581,4.322967 2.08211,4.592302 -2.054258,0.197568 -4.976856,-5.604784 -9.647729,-9.258327 -5.026833,-3.931969 -12.017485,-5.685449 -20.334392,-3.914569 -18.363351,3.910022 -22.56719,18.680922 -22.916658,20.038376 -1.048199,4.071562 -1.67981,8.374029 -1.692246,12.574734 z"
       style="display:none;opacity:1;fill:#06578e;fill-opacity:1;stroke:#15304e;stroke-width:1.96106;stroke-dasharray:none;stroke-opacity:1"
       id="path8"
       sodipodi:nodetypes="csssssssszc"
       transform="matrix(1.0240131,0,0,1.0157219,94.310551,95.903588)"
       inkscape:original-d="m 27.797046,50.942295 c 0.0073,4.21736 0.6398,8.53873 1.692369,12.627266 0.349468,1.357454 4.553307,16.128354 22.916658,20.038376 8.316907,1.77088 15.307559,0.0174 20.334392,-3.914569 4.670873,-3.653543 7.593471,-9.455895 9.647729,-9.258327 2.800471,0.269335 -1.688078,1.982675 -2.08211,4.592302 -0.737506,4.884411 4.839536,7.432454 8.457246,5.25315 3.49646,-2.106258 3.270816,-9.448997 0.057,-11.623476 -4.08626,-2.764781 -8.740992,-1.754838 -15.573481,2.162707 -6.888032,3.949393 -12.511511,3.6858 -16.923595,0.820651 -4.412084,-2.865149 -9.238891,-7.37013 -9.382262,-21.8881"
       inkscape:path-effect="#path-effect69" /><path
       id="path8-8"
       style="display:inline;fill:#516035;fill-opacity:1;stroke:#504227;stroke-width:1.96106;stroke-dasharray:none;stroke-opacity:1"
       d="m 58.385031,84.296278 c -1.903483,-0.0232 -3.899822,-0.24564 -5.979048,-0.68836 C 34.042632,79.697896 29.838962,64.927132 29.489494,63.569678 28.436925,59.481142 27.804211,55.159477 27.796911,50.942117 l 0.115564,-0.0071 c 0.05783,-4.043536 0.674787,-8.167846 1.681985,-12.080129 0.349469,-1.357449 4.55313,-16.128224 22.916489,-20.038241 12.11545,-1.655825 24.731947,-0.09784 37.076232,0.08478 -5.220196,8.268889 -4.919668,24.780693 -0.92857,34.613941 -10.220475,0.406455 -22.646864,4.454692 -26.346928,-8.575136 -0.695633,-3.838561 2.757208,-9.740156 6.814237,-9.376041 4.197735,0.376737 7.228996,5.740213 3.787875,9.258007 -1.838525,1.879471 -6.469977,0.609905 -4.359639,2.48532 0.981137,0.871912 5.248652,1.302336 6.639126,0.965637 1.390474,-0.336699 5.555471,-4.052949 4.453502,-10.128505 -1.698145,-9.362508 -14.852998,-12.79344 -23.218771,-7.360821 -4.412082,2.865154 -9.239015,7.370142 -9.382382,21.888112 0.724981,12.214664 5.177272,16.305727 9.277415,18.968306 4.412084,2.865149 10.035784,3.128754 16.923816,-0.820639 6.832489,-3.917545 11.487121,-4.927543 15.573381,-2.162762 3.213816,2.174479 3.439445,9.517509 -0.05703,11.623767 -3.61771,2.179304 -9.194871,-0.368594 -8.457365,-5.253005 0.394032,-2.609627 4.882641,-4.323292 2.08217,-4.592627 -2.054258,-0.197568 -4.976449,5.604973 -9.647322,9.258516 -3.770124,2.948977 -8.645221,4.672415 -14.35567,4.602802 z"
       transform="matrix(1.0240131,0,0,-1.0157219,94.580917,199.50835)"
       sodipodi:nodetypes="sssccscccsssszzsscssssssss" /><path
       style="display:none;fill:none;stroke:#15304e;stroke-width:1.5;stroke-dasharray:none;stroke-opacity:1"
       d="m 162.83804,183.08924 c 0,0 4.66854,-0.50391 7.33022,-2.43966 1.63028,-1.18565 3.98864,-4.0149 3.98864,-4.0149 0,0 2.78386,2.91422 4.17579,3.7633 1.72621,1.05299 4.61738,2.41062 4.61738,2.41062 z"
       id="path13"
       sodipodi:nodetypes="cscscc" /><path
       style="display:inline;opacity:1;fill:none;stroke:#504227;stroke-width:1.5;stroke-dasharray:none;stroke-opacity:1"
       d="m 162.34978,111.95009 c 0,0 4.66854,0.5039 7.33022,2.43965 1.63028,1.18565 3.98865,4.01491 3.98865,4.01491 0,0 2.78385,-2.91423 4.17578,-3.76331 1.72622,-1.05299 4.61738,-2.41062 4.61738,-2.41062 z"
       id="path42"
       sodipodi:nodetypes="cscscc" /><path
       style="fill:none;stroke:#504227;stroke-width:1.3;stroke-dasharray:none;stroke-opacity:1"
       d="m 187.06602,113.67779 c 0,0 1.31733,-0.36195 1.59026,0.0935 0.45893,0.76593 0.55786,2.0317 -0.28064,2.33861 -0.96939,0.35482 -2.49964,-0.0774 -2.89987,-1.02899 -0.47411,-1.1272 -0.61746,-2.37139 0.37418,-3.08696 1.46678,-1.05844 5.42557,-0.1871 5.42557,-0.1871 0,0 -0.53763,5.98651 -0.65481,8.69963 -0.13331,3.0866 -0.0935,8.69962 -0.0935,8.69962 l 0.53394,13.34779 -6.34168,-0.59989 c 0,0 1.98235,-2.88841 1.97106,-4.7991 -0.009,-1.55335 -1.45687,-4.02783 -1.45687,-4.02783 l 3.34223,-2.14246 c 0.25654,2.98392 0.13986,6.05282 0.18611,9.05893"
       id="path44"
       sodipodi:nodetypes="csssscscccsccc" /><path
       d="m 190.86418,166.72671 0.30921,-8.07359 c 0,0 -1.19512,1.92887 -1.99334,2.72051 -0.66834,0.66283 -2.29158,1.65011 -2.29158,1.65011 l 1.88537,1.71396"
       style="display:none;fill:none;stroke:#15304e;stroke-width:1.3;stroke-dasharray:none;stroke-opacity:1"
       id="path45" /><path
       style="display:none;opacity:1;fill:none;stroke:#15304e;stroke-width:1.3;stroke-dasharray:none;stroke-opacity:1"
       d="m 187.42171,181.21137 c 0,0 1.31734,0.36195 1.59026,-0.0935 0.45893,-0.76594 0.55786,-2.0317 -0.28064,-2.33861 -0.96939,-0.35482 -2.49964,0.0774 -2.89987,1.02899 -0.47411,1.1272 -0.61746,2.37139 0.37418,3.08696 1.46678,1.05844 5.42557,0.18709 5.42557,0.18709 0,0 -0.53763,-5.9865 -0.65481,-8.69962 -0.13331,-3.0866 -0.0935,-8.69962 -0.0935,-8.69962"
       id="path57"
       sodipodi:nodetypes="csssscsc" /><path
       style="fill:none;fill-opacity:1;stroke:#504227;stroke-width:1.5;stroke-dasharray:none;stroke-opacity:1"
       d="m 120.86723,161.75899 0.24239,20.54269 h 17.14921 c 0,0 -7.19657,-3.55363 -10.36225,-7.27175 -3.3907,-3.98241 -3.93886,-6.05979 -3.93886,-6.05979 0,0 -0.98514,6.66937 1.45435,9.02909 0.94381,0.91295 2.66631,1.09076 2.66631,1.09076"
       id="path60"
       sodipodi:nodetypes="cccscsc" /><path
       style="display:inline;opacity:1;fill:none;fill-opacity:1;stroke:#504227;stroke-width:1.5;stroke-dasharray:none;stroke-opacity:1"
       d="m 120.80367,133.00768 0.24239,-20.54269 h 17.14921 c 0,0 -7.19657,3.55362 -10.36225,7.27174 -3.3907,3.98242 -3.93886,6.05979 -3.93886,6.05979 0,0 -0.98514,-6.66936 1.45435,-9.02908 0.94381,-0.91295 2.66631,-1.09076 2.66631,-1.09076"
       id="path61"
       sodipodi:nodetypes="cccscsc" /><path
       sodipodi:type="star"
       style="display:inline;opacity:1;fill:#d5a03a;fill-opacity:1;stroke:#504227;stroke-width:0;stroke-dasharray:none;stroke-opacity:1"
       id="path62"
       inkscape:flatsided="false"
       sodipodi:sides="4"
       sodipodi:cx="34.973221"
       sodipodi:cy="49.138069"
       sodipodi:r1="10.366878"
       sodipodi:r2="4.5406928"
       sodipodi:arg1="-0.0071427357"
       sodipodi:arg2="0.76627808"
       inkscape:rounded="0.02"
       inkscape:randomized="0"
       d="m 45.339834,49.064022 c 0.003,0.155826 -6.985643,3.111839 -7.095059,3.222829 -0.110843,0.112438 -3.039648,7.214812 -3.197507,7.217831 -0.155826,0.003 -3.111839,-6.985643 -3.222829,-7.095059 -0.112438,-0.110843 -7.214812,-3.039648 -7.217831,-3.197507 -0.003,-0.155826 6.985643,-3.111838 7.095059,-3.222828 0.110843,-0.112438 3.039648,-7.214813 3.197507,-7.217832 0.155826,-0.003 3.111838,6.985643 3.222828,7.095059 0.112438,0.110843 7.214813,3.039648 7.217832,3.197507 z"
       transform="matrix(0,-0.6615212,0.44213021,0,111.3173,170.84206)" /><path
       d="m 162.97417,189.44767 c 5.49858,0.30778 11.42819,-0.91513 15.95327,-4.18991 4.96739,-3.59488 8.95196,-8.89105 10.66013,-14.79929 1.8437,-6.37698 -0.36428,-13.23561 -3.17004,-19.02611 -2.762,-5.70021 -7.71604,-11.06917 -14.40951,-11.80789 -6.41755,-0.70827 -13.89968,1.45278 -17.04637,7.44622 -2.40195,5.63048 1.69311,13.00994 7.73321,13.89374 5.05572,0.15754 7.93168,-6.42819 5.05652,-10.34309 -0.90666,-3.42886 -7.27016,-0.19177 -6.77367,-3.34656 4.02487,-3.79583 10.57296,-1.84715 13.78107,2.06389 3.92419,4.11003 3.75159,12.1929 -0.16119,16.66312 -5.40797,6.34336 -13.0233,7.62946 -21.10589,7.49557 -9.47573,-0.3821 -0.53933,15.38935 9.48247,15.95031 z"
       style="display:none;fill:#06578e;fill-opacity:1;stroke:#15304e;stroke-width:2;stroke-dasharray:none;stroke-opacity:1"
       id="path1-7"
       sodipodi:nodetypes="ssssscccccccs" /><path
       style="fill:none;stroke:#504227;stroke-width:1.5;stroke-dasharray:none;stroke-opacity:1"
       d="m 180.72892,136.76442 c 0,0 0.1141,2.41718 -1.84875,2.11068 -2.90984,-0.45437 -2.63494,-3.3935 -0.64437,-4.37686 1.69247,-0.8361 4.58487,-0.64513 5.4033,1.14958 0.96757,2.12174 -0.54564,4.96218 -2.69036,5.87769 -2.37095,1.01208 -5.77905,0.43468 -7.54146,-1.71397 -1.50171,-1.83081 -3.94483,-11.34667 -13.11615,-11.24297 -2.49474,0.0282 -12.43479,0.44139 -12.96556,19.16346 -0.13619,4.80415 1.24659,10.16555 3.84371,13.27833 3.95597,4.74143 9.76941,6.02564 9.76941,6.02564 0,0 -5.63077,-4.3723 -7.19,-7.41439 -1.61133,-3.14374 -2.83107,-7.23068 -3.0697,-10.75524 -0.25167,-3.71704 0.58429,-7.84872 2.42214,-11.08941 1.45512,-2.56583 4.03007,-5.19888 6.96875,-5.45381 2.30476,-0.19993 4.79634,1.37523 6.12039,3.27228 1.0856,1.55542 0.40994,3.18543 -0.60597,4.78724 -1.85806,2.92963 -6.4702,5.58272 -8.60491,2.8481 -1.45257,-1.8608 -1.18441,-3.14584 -0.0606,-4.72664 0.9475,-1.3328 3.46046,-2.61979 4.66604,-1.51494 0.79472,0.72832 -0.72717,3.15109 -0.72717,3.15109"
       id="path63"
       sodipodi:nodetypes="cssssssszcsssssssssc" /><path
       style="fill:none;stroke:#504227;stroke-width:1.3;stroke-opacity:1"
       d="m 154.25248,144.07914 c 0,0 0.91812,1.39763 1.49838,1.82375 0.7125,0.52324 2.37989,1.02435 2.37989,1.02435 0,0 -1.34248,1.75387 -1.68042,2.75199 -0.53063,1.56719 -1.34948,3.85318 -1.34948,3.85318 0,0 -0.75395,-3.39025 -1.00973,-5.50956 -0.1684,-1.39537 0.16136,-3.94371 0.16136,-3.94371 z"
       id="path64"
       sodipodi:nodetypes="cscscsc" /><path
       style="fill:none;stroke:#504227;stroke-width:1.5;stroke-dasharray:none;stroke-opacity:1"
       d="m 190.20416,145.63903 c 0,0 -4.1939,7.15306 -4.79911,11.74067 -0.16507,1.25126 -0.29899,1.77071 0.5999,2.65665 1.80879,1.78275 4.63653,0.0366 5.39899,-1.97106 0.53895,-1.41914 -0.0292,-4.16566 -1.54257,-4.28492 -1.30004,-0.10245 -1.79966,3.85643 -1.79966,3.85643"
       id="path65"
       sodipodi:nodetypes="cssssc" /><path
       style="display:inline;fill:none;stroke:#504227;stroke-width:1.5;stroke-dasharray:none;stroke-opacity:1"
       d="m 190.05072,178.6769 c 0,0 -4.1939,-7.15306 -4.79911,-11.74067 -0.16507,-1.25126 -0.29899,-1.77071 0.5999,-2.65665 1.80879,-1.78275 4.63653,-0.0366 5.39899,1.97106 0.53895,1.41914 -0.0292,4.16566 -1.54257,4.28492 -1.30004,0.10245 -1.79966,-3.85643 -1.79966,-3.85643"
       id="path65-2"
       sodipodi:nodetypes="cssssc" /></g></svg>
