<?xml version="1.0" encoding="UTF-8" standalone="no"?>
<!-- Created with Inkscape (http://www.inkscape.org/) -->

<svg
   width="79mm"
   height="79mm"
   viewBox="0 0 79.000002 79"
   version="1.1"
   id="svg1"
   xml:space="preserve"
   inkscape:version="1.4 (86a8ad7, 2024-10-11)"
   sodipodi:docname="title-letters_color_alt-bg.svg"
   inkscape:export-filename="title-letters_color-C.svg"
   inkscape:export-xdpi="96"
   inkscape:export-ydpi="96"
   inkscape:export-batch-path="C:\Users\tarus.000\Documents\speksi\title-letters"
   inkscape:export-batch-name="title-letters-light-bg"
   xmlns:inkscape="http://www.inkscape.org/namespaces/inkscape"
   xmlns:sodipodi="http://sodipodi.sourceforge.net/DTD/sodipodi-0.dtd"
   xmlns="http://www.w3.org/2000/svg"
   xmlns:svg="http://www.w3.org/2000/svg"><sodipodi:namedview
     id="namedview1"
     pagecolor="#505050"
     bordercolor="#eeeeee"
     borderopacity="1"
     inkscape:showpageshadow="0"
     inkscape:pageopacity="0"
     inkscape:pagecheckerboard="0"
     inkscape:deskcolor="#505050"
     inkscape:document-units="mm"
     inkscape:zoom="0.38592232"
     inkscape:cx="159.35849"
     inkscape:cy="905.62266"
     inkscape:window-width="1920"
     inkscape:window-height="1013"
     inkscape:window-x="-9"
     inkscape:window-y="-9"
     inkscape:window-maximized="1"
     inkscape:current-layer="g85" /><defs
     id="defs1" /><g
     inkscape:groupmode="layer"
     id="g85"
     inkscape:label="S"
     transform="translate(-117.44041,-212.05222)"
     style="display:inline;opacity:1"><rect
       style="fill:#f5e1bc;fill-opacity:1;stroke:#7f4927;stroke-width:2;stroke-dasharray:none;stroke-opacity:1"
       id="rect75"
       width="77"
       height="77"
       x="118.44041"
       y="213.05222" /><path
       id="path76-1"
       style="display:inline;fill:#c67732;fill-opacity:1;stroke:#7f4927;stroke-width:2;stroke-dasharray:none;stroke-opacity:1"
       d="m 158.49535,217.22259 c -6.8543,0.0992 -13.64389,1.87409 -18.09864,4.81055 -10.0497,6.62451 -7.12878,15.21254 -5.04827,18.19114 5.23741,7.49822 15.01147,10.12893 19.99152,12.94384 19.87178,11.23226 -3.8683,30.46976 -16.95656,21.79616 -4.41487,-2.46929 -7.48643,-8.57192 -4.45864,-13.2023 3.01809,-1.04427 0.95211,5.78949 4.48706,6.07818 4.36001,2.14086 10.33625,-1.84958 9.29091,-6.79855 -1.9336,-5.7901 -9.91879,-8.52197 -15.03836,-5.16609 -5.34569,4.1529 -6.58085,12.04069 -4.3279,18.0914 5.40487,14.51582 34.74952,13.26764 45.71504,6.03943 10.0497,-6.62451 7.12929,-15.21202 5.04878,-18.19062 -5.23767,-7.4986 -15.95529,-10.30088 -20.93523,-13.11576 -19.87122,-11.23206 2.16628,-30.2983 15.25444,-21.62475 4.41487,2.46929 7.48592,8.57191 4.45813,13.20229 -3.01809,1.04427 -0.95212,-5.78949 -4.48707,-6.07818 -4.36001,-2.14086 -10.33624,1.84958 -9.2909,6.79855 1.9336,5.7901 9.91879,8.52197 15.03836,5.16609 5.34569,-4.1529 6.58137,-12.04069 4.32842,-18.0914 -3.20915,-8.61877 -14.95327,-10.99493 -24.97109,-10.84998 z"
       sodipodi:nodetypes="sssscccccsssscccccss" /><path
       sodipodi:type="star"
       style="display:inline;opacity:1;fill:#faa950;fill-opacity:1;stroke:#7f4927;stroke-width:0;stroke-dasharray:none;stroke-opacity:1"
       id="path85"
       inkscape:flatsided="false"
       sodipodi:sides="4"
       sodipodi:cx="34.973221"
       sodipodi:cy="49.138069"
       sodipodi:r1="10.366878"
       sodipodi:r2="4.5406928"
       sodipodi:arg1="-0.0071427357"
       sodipodi:arg2="0.76627808"
       inkscape:rounded="0.02"
       inkscape:randomized="0"
       d="m 45.339834,49.064022 c 0.003,0.155826 -6.985643,3.111839 -7.095059,3.222829 -0.110843,0.112438 -3.039648,7.214812 -3.197507,7.217831 -0.155826,0.003 -3.111839,-6.985643 -3.222829,-7.095059 -0.112438,-0.110843 -7.214812,-3.039648 -7.217831,-3.197507 -0.003,-0.155826 6.985643,-3.111838 7.095059,-3.222828 0.110843,-0.112438 3.039648,-7.214813 3.197507,-7.217832 0.155826,-0.003 3.111838,6.985643 3.222828,7.095059 0.112438,0.110843 7.214813,3.039648 7.217832,3.197507 z"
       transform="matrix(0,0.6615212,-0.44213021,0,164.24553,210.1911)"
       inkscape:label="path46-7-2-9-5" /><path
       style="fill:none;fill-opacity:1;stroke:#7f4927;stroke-width:1.5;stroke-dasharray:none;stroke-opacity:1"
       d="m 177.58268,216.61483 c 0,0 6.1812,2.78451 8.28804,4.52273 2.08739,1.72218 5.64947,6.2637 5.64947,6.2637 l 0.2424,-10.66524 z"
       id="path86"
       sodipodi:nodetypes="csccc" /><path
       style="fill:none;fill-opacity:1;stroke:#7f4927;stroke-width:1.5;stroke-dasharray:none;stroke-opacity:1"
       d="m 184.85443,224.00777 c 0,0 5.17565,5.46513 5.21141,9.81687 0.0299,3.63956 -0.43498,6.73009 -2.54511,9.69566 -2.38898,3.35746 -5.95447,4.26331 -7.02935,8.24131 -1.00311,3.71238 0.55399,7.6363 4.24185,8.7261 2.53015,0.74768 6.30964,-0.89277 7.15055,-3.39348 0.75444,-2.24357 -0.91439,-6.50992 -3.27228,-6.30218 -5.44301,0.47955 -1.93914,5.21141 -1.93914,5.21141"
       id="path87"
       sodipodi:nodetypes="cssssssc" /><path
       style="fill:none;fill-opacity:1;stroke:#7f4927;stroke-width:1.5;stroke-dasharray:none;stroke-opacity:1"
       d="m 169.22017,229.94637 c 0,0 -9.33998,-3.6043 -13.93752,3.51467 -4.50429,6.97457 7.02935,12.11959 7.02935,12.11959 0,0 -3.33695,-6.99889 -1.83461,-10.1989 1.40806,-2.99919 8.74278,-5.43536 8.74278,-5.43536 z"
       id="path88"
       sodipodi:nodetypes="cscsc" /><path
       style="fill:none;fill-opacity:1;stroke:#7f4927;stroke-width:1.5;stroke-dasharray:none;stroke-opacity:1"
       d="m 127.7712,243.88388 c -2.30272,-0.48478 -2.90188,6.28621 3.39349,2.42392 3.75297,-2.30249 -1.53175,-6.13719 -4.48426,-6.05979 -3.48925,0.0915 -4.72663,5.8174 -4.72663,6.30218 0,0.48479 -0.27079,3.48299 3.51468,4.96903 4.81673,1.89086 8.27698,-3.48562 16.36143,-1.21196 4.81104,1.35305 12.80751,4.79681 14.90709,9.33208 1.33075,2.87453 1.00533,8.28617 -1.33316,10.42284 -7.65172,6.99135 -15.02827,1.93914 -15.02827,1.93914 0,0 5.86755,-0.20286 8.24131,-1.69675 1.97629,-1.24375 3.83455,-3.2757 4.24185,-5.575 0.40565,-2.28999 0.24239,-5.8174 -3.51468,-8.36251"
       id="path89"
       sodipodi:nodetypes="cssssssscssc" /><path
       style="fill:none;fill-opacity:1;stroke:#7f4927;stroke-width:1.5;stroke-dasharray:none;stroke-opacity:1"
       d="m 128.61957,254.54912 c 0,0 -5.42714,5.33943 -5.8174,8.84729 0.45387,9.13745 5.28368,21.51524 14.5435,23.63318 0,0 -15.48064,0.3636 -15.60183,-0.1212 -0.1212,-0.48477 -0.12119,-13.21034 -0.12119,-13.21034 0,0 1.00288,6.66445 3.27228,8.7261 1.33577,1.21349 3.84583,2.18153 3.84583,2.18153"
       id="path90"
       sodipodi:nodetypes="cscscsc" /><path
       style="fill:none;fill-opacity:1;stroke:#7f4927;stroke-width:1.5;stroke-dasharray:none;stroke-opacity:1"
       d="m 131.28588,238.55127 c 0,0 -2.66223,-4.11822 -1.81794,-8.84729 1.08863,-6.09764 5.04446,-3.36048 4.24185,-9.4857 -0.69354,-5.29288 -7.20313,-5.41961 -11.02882,-1.69675 -1.59266,1.54985 -1.72599,5.92211 0.48479,5.6962 8.74651,-0.89376 6.18098,-6.90816 2.42391,-3.63587"
       id="path91"
       sodipodi:nodetypes="cssssc" /><path
       style="fill:none;fill-opacity:1;stroke:#7f4927;stroke-width:1.5;stroke-dasharray:none;stroke-opacity:1"
       d="m 121.22663,226.47607 c 0,0 1.80263,1.01414 2.78922,0.99231 1.3073,-0.0289 3.63416,-1.47709 3.63416,-1.47709 0,0 -1.23343,2.71648 -1.34463,5.76375 -0.0938,2.57 0.19715,3.24207 0.98104,5.22068 -1.47726,-0.46722 -1.76556,-0.91237 -3.24459,-0.59718 -1.26589,0.26977 -2.694,1.80914 -2.694,1.80914 z"
       id="path92"
       sodipodi:nodetypes="cscscscc" /><path
       style="fill:none;fill-opacity:1;stroke:#7f4927;stroke-width:1.5;stroke-dasharray:none;stroke-opacity:1"
       d="m 134.92175,215.88765 c 0,0 1.3397,1.42903 1.6905,2.31897 0.25171,0.63856 0.24864,2.04408 0.24864,2.04408 0,0 1.9179,-1.38892 2.91823,-2.02084 1.25715,-0.79415 3.86873,-2.22102 3.86873,-2.22102 z"
       id="path93"
       sodipodi:nodetypes="cscscc" /><path
       style="fill:none;fill-opacity:1;stroke:#7f4927;stroke-width:1.5;stroke-dasharray:none;stroke-opacity:1"
       d="m 188.08512,268.33246 c 0,0 0.0155,4.0608 1.61104,3.97006 3.12057,-0.17746 3.5563,-5.15599 1.44574,-7.46142 -1.71315,-1.87133 -4.29921,-1.28195 -5.88587,0.69777 -1.69575,2.11585 -1.3239,5.48045 -0.0294,7.86302 1.36554,2.51332 4.24699,2.62302 5.53699,5.17592 1.42114,2.81243 0.68559,8.2535 0.68559,8.2535 l -24.28936,0.0771"
       id="path94"
       sodipodi:nodetypes="cssssscc" /><path
       style="fill:none;fill-opacity:1;stroke:#7f4927;stroke-width:1.5;stroke-dasharray:none;stroke-opacity:1"
       d="m 182.74841,275.90057 c 0.0427,0.2134 2.43159,1.39983 3.78674,3.13942 1.3659,1.7534 0.84097,4.48772 0.84097,4.48772 l -13.19755,0.77129 c 0,0 4.49597,-2.39824 5.88606,-3.88267 1.19689,-1.2781 2.68378,-4.51576 2.68378,-4.51576 z"
       id="path95"
       sodipodi:nodetypes="csccsc" /><path
       style="fill:none;fill-opacity:1;stroke:#7f4927;stroke-width:1.3;stroke-dasharray:none;stroke-opacity:1"
       d="m 192.12618,240.12682 c 0,0 -0.79484,4.04477 -1.57931,5.08766 -0.5535,0.73583 -2.17777,1.6993 -2.17777,1.6993 l 2.23852,0.76004 1.51856,1.66388 z"
       id="path96"
       sodipodi:nodetypes="cscccc" /></g></svg>
