<?xml version="1.0" encoding="UTF-8" standalone="no"?>
<!-- Created with Inkscape (http://www.inkscape.org/) -->

<svg
   width="79mm"
   height="79mm"
   viewBox="0 0 79.000002 79"
   version="1.1"
   id="svg1"
   xml:space="preserve"
   inkscape:version="1.4 (86a8ad7, 2024-10-11)"
   sodipodi:docname="title-letters_color.svg"
   inkscape:export-filename="title-letters_color-C.svg"
   inkscape:export-xdpi="96"
   inkscape:export-ydpi="96"
   inkscape:export-batch-path="C:\Users\tarus.000\Documents\speksi\title-letters"
   inkscape:export-batch-name="title-letters"
   xmlns:inkscape="http://www.inkscape.org/namespaces/inkscape"
   xmlns:sodipodi="http://sodipodi.sourceforge.net/DTD/sodipodi-0.dtd"
   xmlns="http://www.w3.org/2000/svg"
   xmlns:svg="http://www.w3.org/2000/svg"><sodipodi:namedview
     id="namedview1"
     pagecolor="#505050"
     bordercolor="#eeeeee"
     borderopacity="1"
     inkscape:showpageshadow="0"
     inkscape:pageopacity="0"
     inkscape:pagecheckerboard="0"
     inkscape:deskcolor="#505050"
     inkscape:document-units="mm"
     inkscape:zoom="0.38592232"
     inkscape:cx="159.35849"
     inkscape:cy="897.84908"
     inkscape:window-width="1920"
     inkscape:window-height="1013"
     inkscape:window-x="-9"
     inkscape:window-y="-9"
     inkscape:window-maximized="1"
     inkscape:current-layer="g85" /><defs
     id="defs1"><inkscape:path-effect
       effect="mirror_symmetry"
       start_point="87.688493,50.994827"
       end_point="58.513881,50.994827"
       center_point="73.101187,50.994827"
       id="path-effect8"
       is_visible="true"
       lpeversion="1.2"
       lpesatellites=""
       mode="free"
       discard_orig_path="false"
       fuse_paths="true"
       oposite_fuse="false"
       split_items="false"
       split_open="false"
       link_styles="false" /></defs><g
     inkscape:groupmode="layer"
     id="layer3"
     inkscape:label="E"
     transform="translate(-20.521374,-9.2072163)"
     style="display:inline;opacity:1"><rect
       style="display:inline;fill:#d5a03a;fill-opacity:1;stroke:#15304e;stroke-width:2;stroke-dasharray:none;stroke-opacity:1"
       id="rect1"
       width="77"
       height="77"
       x="21.521374"
       y="10.207216" /><path
       d="m 89.892711,50.984394 c -5.676267,-0.937261 -12.736437,-1.410821 -27.726958,-3.376261 -5.158911,-0.676396 -6.999258,-1.355154 -8.948105,-4.651662 -1.948847,-3.296508 -0.971723,-8.72958 3.105606,-12.607192 4.077329,-3.877612 10.035563,-3.128742 16.923595,0.820651 6.832489,3.917545 11.487221,4.927488 15.573481,2.162707 3.213816,-2.174479 3.43946,-9.517218 -0.057,-11.623476 -3.61771,-2.179304 -9.194752,0.368739 -8.457246,5.25315 0.394032,2.609627 4.882581,4.322967 2.08211,4.592302 -2.054258,0.197568 -4.976856,-5.604784 -9.647729,-9.258327 -5.026833,-3.931969 -12.017485,-5.685449 -20.334392,-3.914569 -18.363351,3.910022 -22.56719,18.680922 -22.916658,20.038376 -1.048199,4.071562 -1.67981,8.374029 -1.692246,12.574734 0.01244,4.200705 0.644047,8.503172 1.692246,12.574734 0.349468,1.357454 4.553307,16.128354 22.916658,20.038376 8.316907,1.77088 15.307559,0.0174 20.334392,-3.914569 4.670873,-3.653543 7.593471,-9.455895 9.647729,-9.258327 2.800471,0.269335 -1.688078,1.982675 -2.08211,4.592302 -0.737506,4.884411 4.839536,7.432454 8.457246,5.25315 3.49646,-2.106258 3.270816,-9.448997 0.057,-11.623476 -4.08626,-2.764781 -8.740992,-1.754838 -15.573481,2.162707 -6.888032,3.949393 -12.846266,4.698263 -16.923595,0.820651 -4.077329,-3.877612 -5.054453,-9.310684 -3.105606,-12.607192 1.948847,-3.296508 3.789194,-3.975266 8.948105,-4.651662 14.990521,-1.96544 22.050691,-2.439 27.726958,-3.376261"
       style="display:inline;opacity:1;fill:#06578e;fill-opacity:1;stroke:#15304e;stroke-width:1.96106;stroke-dasharray:none;stroke-opacity:1"
       id="path1"
       sodipodi:nodetypes="csssssssszzzc"
       transform="matrix(1.0240131,0,0,1.0157219,-1.3044772,-2.791387)"
       inkscape:original-d="m 27.797046,50.942295 c 0.0073,4.21736 0.6398,8.53873 1.692369,12.627266 0.349468,1.357454 4.553307,16.128354 22.916658,20.038376 8.316907,1.77088 15.307559,0.0174 20.334392,-3.914569 4.670873,-3.653543 7.593471,-9.455895 9.647729,-9.258327 2.800471,0.269335 -1.688078,1.982675 -2.08211,4.592302 -0.737506,4.884411 4.839536,7.432454 8.457246,5.25315 3.49646,-2.106258 3.270816,-9.448997 0.057,-11.623476 -4.08626,-2.764781 -8.740992,-1.754838 -15.573481,2.162707 -6.888032,3.949393 -12.846266,4.698263 -16.923595,0.820651 -4.077329,-3.877612 -5.054453,-9.310684 -3.105606,-12.607192 1.948847,-3.296508 3.789194,-3.975266 8.948105,-4.651662 14.990521,-1.96544 22.050691,-2.439 27.726958,-3.376261"
       inkscape:path-effect="#path-effect8" /><path
       style="fill:none;stroke:#15304e;stroke-width:1.7;stroke-dasharray:none;stroke-opacity:1"
       d="m 62.919976,37.901177 c 0,0 -1.379888,-1.937206 -0.516525,-3.243314 1.685804,-2.550308 4.759957,-0.917104 5.474376,-0.311371 1.499107,1.271045 1.511278,4.440917 0.187087,5.893292 -2.083641,2.28534 -6.698445,2.292806 -9.260887,0.561266 -1.797403,-1.214574 -2.575549,-4.067277 -2.057977,-6.173925 0.578759,-2.355693 2.869043,-4.531769 5.238483,-5.051393 3.515846,-0.771034 7.927401,0.760474 10.196332,3.554685 1.684663,2.074679 1.48068,5.030988 3.21463,7.064654 2.92785,3.433934 14.000103,4.270881 15.823703,3.080493 2.255376,-1.472237 3.264617,-3.433432 3.412309,-6.122742 0.0705,-1.283709 -0.935445,-3.741772 -0.935445,-3.741772 0,0 -6.013947,3.441284 -9.354431,3.648228 -2.407869,0.149168 -7.015827,-1.777344 -7.015827,-1.777344 0,0 1.724311,3.208532 2.819273,4.115951 2.721563,2.255422 8.873771,0.841899 8.873771,0.841899"
       id="path14"
       sodipodi:nodetypes="csssssssssscscsc" /><path
       style="display:inline;opacity:1;fill:none;stroke:#15304e;stroke-width:1.7;stroke-dasharray:none;stroke-opacity:1"
       d="m 62.711917,60.019316 c 0,0 -1.379888,1.937206 -0.516525,3.243314 1.685804,2.550308 4.759957,0.917104 5.474376,0.311371 1.499107,-1.271045 1.511278,-4.440917 0.187087,-5.893292 -2.083641,-2.28534 -6.698445,-2.292806 -9.260887,-0.561266 -1.797403,1.214574 -2.575549,4.067277 -2.057977,6.173925 0.578759,2.355693 2.869043,4.531769 5.238483,5.051393 3.515846,0.771034 7.927401,-0.760474 10.196332,-3.554685 1.684663,-2.074679 1.117093,-5.394575 2.851043,-7.428241 2.927852,-3.433934 13.757642,-4.392078 15.58123,-3.20169 2.255358,1.472237 3.870574,3.918216 4.018274,6.607526 0.0705,1.283709 -0.935444,3.741772 -0.935444,3.741772 0,0 -6.013917,-3.441284 -9.354379,-3.648228 -2.407855,-0.149168 -7.015788,1.777344 -7.015788,1.777344 0,0 1.724341,-3.572119 2.819275,-4.479538 2.721542,-2.255422 8.873709,-0.478312 8.873709,-0.478312"
       id="path14-5"
       sodipodi:nodetypes="csssssssssscscsc" /><path
       style="fill:none;stroke:#15304e;stroke-width:1.5;stroke-dasharray:none;stroke-opacity:1"
       d="m 67.223017,84.39426 c 0,0 4.668541,-0.503904 7.330217,-2.439655 1.630281,-1.185649 3.988646,-4.014904 3.988646,-4.014904 0,0 2.783856,2.914228 4.175783,3.763304 1.726217,1.052992 4.617384,2.410623 4.617384,2.410623 z"
       id="path15"
       sodipodi:nodetypes="cscscc" /><path
       style="display:inline;opacity:1;fill:none;stroke:#15304e;stroke-width:1.5;stroke-dasharray:none;stroke-opacity:1"
       d="m 66.734758,13.255113 c 0,0 4.668541,0.503904 7.330217,2.439655 1.63028,1.185649 3.98865,4.014904 3.98865,4.014904 0,0 2.78385,-2.914228 4.17578,-3.763304 1.72622,-1.052992 4.61738,-2.410623 4.61738,-2.410623 z"
       id="path15-1"
       sodipodi:nodetypes="cscscc" /><path
       style="fill:none;stroke:#15304e;stroke-width:1.3;stroke-dasharray:none;stroke-opacity:1"
       d="m 91.450999,14.982815 c 0,0 1.317332,-0.361949 1.590254,0.09354 0.458931,0.765934 0.557863,2.031696 -0.280634,2.338608 -0.969392,0.354823 -2.499645,-0.07744 -2.899873,-1.028988 -0.474112,-1.127204 -0.617456,-2.371395 0.374176,-3.086962 1.46678,-1.058437 5.425573,-0.187094 5.425573,-0.187094 0,0 -0.537632,5.986502 -0.654812,8.699625 -0.133311,3.086603 -0.09354,8.699621 -0.09354,8.699621"
       id="path16"
       sodipodi:nodetypes="csssscsc" /><path
       style="display:inline;opacity:1;fill:none;stroke:#15304e;stroke-width:1.3;stroke-dasharray:none;stroke-opacity:1"
       d="m 91.80669,82.516393 c 0,0 1.31734,0.361949 1.59026,-0.09354 0.45893,-0.765934 0.55786,-2.031696 -0.28064,-2.338608 -0.96939,-0.354823 -2.49964,0.07744 -2.89987,1.028988 -0.47411,1.127204 -0.61746,2.371395 0.37418,3.086962 1.46678,1.058437 5.42557,0.187094 5.42557,0.187094 0,0 -0.53763,-5.986502 -0.65481,-8.699625 -0.13331,-3.086603 -0.0935,-8.699621 -0.0935,-8.699621"
       id="path16-7"
       sodipodi:nodetypes="csssscsc" /><path
       style="fill:none;fill-opacity:1;stroke:#15304e;stroke-width:1.5;stroke-dasharray:none;stroke-opacity:1"
       d="m 25.252205,63.064016 0.24239,20.54269 h 17.149209 c 0,0 -7.196572,-3.553629 -10.362243,-7.271747 -3.390702,-3.982419 -3.938864,-6.059792 -3.938864,-6.059792 0,0 -0.985139,6.669367 1.454351,9.029089 0.943812,0.91295 2.666308,1.09076 2.666308,1.09076"
       id="path36"
       sodipodi:nodetypes="cccscsc" /><path
       style="display:inline;opacity:1;fill:none;fill-opacity:1;stroke:#15304e;stroke-width:1.5;stroke-dasharray:none;stroke-opacity:1"
       d="m 25.188645,34.3127 0.24239,-20.54269 h 17.149209 c 0,0 -7.196572,3.553629 -10.362243,7.271747 -3.390702,3.982419 -3.938864,6.059792 -3.938864,6.059792 0,0 -0.985139,-6.669367 1.454351,-9.029089 0.943812,-0.91295 2.666308,-1.09076 2.666308,-1.09076"
       id="path36-1"
       sodipodi:nodetypes="cccscsc" /><path
       sodipodi:type="star"
       style="display:inline;opacity:1;fill:#b376c4;fill-opacity:1;stroke:#000000;stroke-width:0;stroke-dasharray:none;stroke-opacity:1"
       id="path46-7-23"
       inkscape:flatsided="false"
       sodipodi:sides="4"
       sodipodi:cx="34.973221"
       sodipodi:cy="49.138069"
       sodipodi:r1="10.366878"
       sodipodi:r2="4.5406928"
       sodipodi:arg1="-0.0071427357"
       sodipodi:arg2="0.76627808"
       inkscape:rounded="0.02"
       inkscape:randomized="0"
       d="m 45.339834,49.064022 c 0.003,0.155826 -6.985643,3.111839 -7.095059,3.222829 -0.110843,0.112438 -3.039648,7.214812 -3.197507,7.217831 -0.155826,0.003 -3.111839,-6.985643 -3.222829,-7.095059 -0.112438,-0.110843 -7.214812,-3.039648 -7.217831,-3.197507 -0.003,-0.155826 6.985643,-3.111838 7.095059,-3.222828 0.110843,-0.112438 3.039648,-7.214813 3.197507,-7.217832 0.155826,-0.003 3.111838,6.985643 3.222828,7.095059 0.112438,0.110843 7.214813,3.039648 7.217832,3.197507 z"
       transform="matrix(0,-0.6615212,0.44213021,0,26.001058,72.318483)" /></g></svg>
