<?xml version="1.0" encoding="UTF-8" standalone="no"?>
<!-- Created with Inkscape (http://www.inkscape.org/) -->

<svg
   width="79mm"
   height="79mm"
   viewBox="0 0 79.000002 79"
   version="1.1"
   id="svg1"
   xml:space="preserve"
   inkscape:version="1.4 (86a8ad7, 2024-10-11)"
   sodipodi:docname="title-letters_color_alt-bg.svg"
   inkscape:export-filename="title-letters_color-C.svg"
   inkscape:export-xdpi="96"
   inkscape:export-ydpi="96"
   inkscape:export-batch-path="C:\Users\tarus.000\Documents\speksi\title-letters"
   inkscape:export-batch-name="title-letters-light-bg"
   xmlns:inkscape="http://www.inkscape.org/namespaces/inkscape"
   xmlns:sodipodi="http://sodipodi.sourceforge.net/DTD/sodipodi-0.dtd"
   xmlns="http://www.w3.org/2000/svg"
   xmlns:svg="http://www.w3.org/2000/svg"><sodipodi:namedview
     id="namedview1"
     pagecolor="#505050"
     bordercolor="#eeeeee"
     borderopacity="1"
     inkscape:showpageshadow="0"
     inkscape:pageopacity="0"
     inkscape:pagecheckerboard="0"
     inkscape:deskcolor="#505050"
     inkscape:document-units="mm"
     inkscape:zoom="0.38592232"
     inkscape:cx="159.35849"
     inkscape:cy="905.62266"
     inkscape:window-width="1920"
     inkscape:window-height="1013"
     inkscape:window-x="-9"
     inkscape:window-y="-9"
     inkscape:window-maximized="1"
     inkscape:current-layer="g75" /><defs
     id="defs1" /><g
     inkscape:groupmode="layer"
     id="g3"
     inkscape:label="R"
     transform="translate(-21.308306,-211.69707)"
     style="display:inline;opacity:1"><rect
       style="fill:#f5e1bc;fill-opacity:1;stroke:#7e3a91;stroke-width:2;stroke-dasharray:none;stroke-opacity:1"
       id="rect3"
       width="77"
       height="77"
       x="22.308306"
       y="212.69707" /><path
       id="path9-9"
       style="display:inline;opacity:1;fill:#b376c4;fill-opacity:1;stroke:#7e3a91;stroke-width:2;stroke-dasharray:none;stroke-opacity:1"
       d="m 67.646654,218.91565 c -0.551966,-0.0157 -1.107055,-0.011 -1.664498,0.0145 -2.724716,0.12432 -8.59475,0.30261 -12.750643,0.39274 -1.301754,0.0219 -3.16403,0.0598 -6.208923,0.0186 l -0.01705,5.2e-4 -11.868527,-5.2e-4 c -0.0049,-1.5e-4 1.433485,0.002 -0.01602,5.2e-4 -1.449504,-0.002 -5.90679,0.0643 -7.503935,0 0.190224,0.22145 2.748304,3.55142 4.821928,8.3292 2.073624,4.77779 2.156675,15.86025 2.191081,21.03438 0.03547,5.3342 -0.923105,19.9647 -1.891358,24.27759 -0.968253,4.31289 -1.603862,5.88776 -4.621423,9.45317 1.624523,-0.0655 5.143872,0 6.854362,0 h 13.671517 c 0.402258,0 5.332141,-0.0656 6.960298,0 -3.017561,-3.56541 -3.652653,-4.81679 -4.620906,-9.12968 -0.458957,-2.04433 -0.920298,-6.21153 -1.274858,-10.68255 9.082348,2.66086 14.062516,15.30641 23.792863,19.38435 6.976519,2.92381 12.334517,1.56014 16.882691,-1.202 3.653598,-2.21881 3.930342,-10.26769 0.04496,-12.75581 -4.020135,-2.57438 -10.217933,0.43538 -9.398393,6.20531 0.437873,3.08273 5.426071,5.10683 2.314071,5.42499 -2.282763,0.23339 -5.024945,-6.93026 -7.07192,-10.27431 -2.046975,-3.34405 -3.244538,-5.57428 -7.250203,-7.46828 -1.144777,-0.54128 -3.281088,-0.90136 -5.526278,-1.15445 3.431791,-0.26198 7.257116,-0.97225 12.660726,-2.61172 11.670632,-3.54091 14.454555,-14.36696 11.151257,-26.6237 -3.819193,-7.58898 -11.381326,-12.3969 -19.660819,-12.63285 z m -10.875822,3.74809 c 3.688035,-0.0397 6.209046,0.0815 11.427726,5.1971 5.218682,5.11561 5.745778,20.09291 -0.791166,24.76334 -4.892499,3.49553 -11.711728,4.51265 -18.050578,4.82607 -0.182662,-3.22384 -0.290455,-6.26976 -0.265617,-8.4212 0.07173,-6.21275 0.471904,-17.31827 1.400432,-22.38623 1.442442,-1.77988 2.944177,-3.9432 6.279203,-3.97908 z" /><path
       style="fill:none;fill-opacity:1;stroke:#7e3a91;stroke-width:1.5;stroke-dasharray:none;stroke-opacity:1"
       d="m 91.091543,259.2902 c 1.494791,-0.76764 2.305602,2.19944 -1.177632,1.86006 -1.511242,-0.14724 -2.248298,-2.5555 -1.048301,-3.82281 1.13896,-1.20285 2.952611,-1.42787 4.480818,-0.46936 1.513696,1.18433 2.560827,3.32421 2.572972,5.034 0.01215,1.70979 0.114605,3.5908 -0.499839,6.5692 -1.138682,-2.04103 -2.710858,-2.96615 -4.315307,-4.04401 -1.604449,-1.07786 -3.598479,-1.65854 -5.525524,-1.27767 -3.096874,0.61208 -5.089712,2.37943 -6.235076,5.05098 -1.053888,-2.1649 -2.644912,-5.60107 -4.95473,-6.59672 0,0 5.520855,-1.45972 7.958614,-2.87975 3.711546,-2.16204 5.76615,-4.11281 7.749177,-6.96379 2.465061,-3.54399 4.114099,-7.67516 4.241104,-11.99028 0.1421,-4.82802 -0.305248,-8.68847 -2.617965,-12.77567 -1.297981,-2.29388 -6.02132,-5.9166 -6.02132,-5.9166 0,0 1.618063,-3.85735 3.089199,-4.55527 1.752798,-0.83155 4.903831,-0.78375 5.968961,0.83775 0.734522,1.1182 1.016748,4.29922 -0.733031,4.86942 -1.749779,0.5702 -3.026415,-0.40564 -3.288193,-1.48273 -0.261778,-1.07709 1.507977,-1.76355 1.507977,-1.76355"
       id="path47"
       sodipodi:nodetypes="cccczczsccsssscsszzc" /><path
       style="fill:none;fill-opacity:1;stroke:#7e3a91;stroke-width:1.5;stroke-dasharray:none;stroke-opacity:1"
       d="m 57.832141,230.93488 c 0,0 3.9641,1.24892 0.666424,4.29473 -0.906588,0.83735 -3.588902,1.18762 -4.961164,-1.55498 -1.021363,-2.0413 0.44301,-5.41616 2.517605,-6.36807 2.327048,-1.06774 6.193728,0.18835 7.25663,2.51761 1.174723,2.5743 1.4445,4.47322 0.07405,6.81234 -1.317868,2.24938 -4.765636,2.50087 -6.949604,3.92451 -2.078032,1.35459 -2.611744,2.96284 -3.554267,5.25735 -1.032314,2.5131 -0.296187,8.14521 -0.296187,8.14521 0,0 0.885032,-4.34881 1.999274,-6.21998 1.2058,-2.02492 2.200515,-4.16071 4.357951,-5.10925 2.169591,-0.95389 4.550637,-1.53147 6.294015,0.074 1.182389,1.08888 2.076321,3.79599 1.406898,5.25736 -0.916941,2.00169 -3.352633,3.53995 -5.553543,3.48021 -1.29529,-0.0351 -3.122247,-0.55688 -3.035936,-3.40616 0.01952,-0.64429 1.562251,-2.6787 2.659133,-2.60799 2.514696,0.16213 1.857748,2.1637 1.857748,2.1637"
       id="path48"
       sodipodi:nodetypes="cssssssscsssssssc" /><path
       style="fill:none;fill-opacity:1;stroke:#7e3a91;stroke-width:1.2;stroke-dasharray:none;stroke-opacity:1"
       d="m 67.702099,233.66379 -0.639616,2.89933 -1.35966,1.76564 1.641433,1.68614 1.764742,2.53456 c 0.307271,0.70558 0.641737,-1.71442 0.266546,-4.2576 -0.438544,-2.9726 -1.629697,-6.11349 -1.673445,-4.62807 z"
       id="path49"
       sodipodi:nodetypes="cccccsc" /><path
       style="fill:none;fill-opacity:1;stroke:#7e3a91;stroke-width:1.5;stroke-dasharray:none;stroke-opacity:1"
       d="m 24.825421,216.21135 c 0,0 11.92559,-0.16745 22.477327,-0.25559 10.551737,-0.0881 29.053836,-1.50915 35.529848,3.88145 0,0 2.905316,-2.25101 2.267869,-3.83693 -0.586864,-1.46008 -2.593393,-1.53525 -3.589057,-0.31669 -0.359681,0.4402 0.950045,1.68897 0.950045,1.68897"
       id="path50"
       sodipodi:nodetypes="czcssc" /><path
       style="fill:none;fill-opacity:1;stroke:#7e3a91;stroke-width:1.5;stroke-dasharray:none;stroke-opacity:1"
       d="m 25.033657,221.92003 c 0,0 3.309469,4.54103 4.179982,7.16568 0.977414,2.94696 0.845153,6.15729 1.044996,9.25568 0.195404,3.02958 0.149285,9.10639 0.149285,9.10639 -2.724644,-0.0544 -4.013795,-0.28142 -5.150335,-2.46321 -0.678877,-1.30322 0.417671,-4.65174 1.866062,-4.4039 1.588605,0.27183 0.522498,4.03069 0.522498,4.03069"
       id="path51"
       sodipodi:nodetypes="csscssc" /><path
       style="display:inline;opacity:1;fill:none;fill-opacity:1;stroke:#7e3a91;stroke-width:1.5;stroke-dasharray:none;stroke-opacity:1"
       d="m 25.225489,280.22099 c 0,0 3.309469,-4.54102 4.179982,-7.16568 0.977414,-2.94696 0.845153,-6.15728 1.044996,-9.25567 0.195404,-3.02959 0.149285,-9.1064 0.149285,-9.1064 -2.724644,0.0544 -4.013795,0.28142 -5.150335,2.46321 -0.678877,1.30322 0.417671,4.65174 1.866062,4.40391 1.588605,-0.27184 0.522498,-4.0307 0.522498,-4.0307"
       id="path51-1"
       sodipodi:nodetypes="csscssc" /><path
       style="fill:none;fill-opacity:1;stroke:#7e3a91;stroke-width:1.2;stroke-dasharray:none;stroke-opacity:1"
       d="m 30.314566,250.94081 -3.252388,-1.12055 -2.131197,-1.94072 0.105562,5.5947 2.270392,-1.7959 z"
       id="path52"
       sodipodi:nodetypes="cccccc" /><path
       style="fill:none;fill-opacity:1;stroke:#7e3a91;stroke-width:1.5;stroke-dasharray:none;stroke-opacity:1"
       d="m 26.062808,285.91027 40.063991,0.42849 c 0,0 -6.644647,-4.28078 -8.86978,-7.19865 -2.246544,-2.94595 -3.770731,-10.45522 -3.770731,-10.45522 0,0 4.424316,6.4488 7.198666,9.16974 3.116313,3.05632 10.198107,8.31274 10.198107,8.31274 0,0 8.255605,0.65866 12.340566,0.1714 2.167097,-0.25849 4.384774,-0.66202 6.34168,-1.62827 2.280209,-1.12589 5.998887,-4.71341 5.998887,-4.71341 0,0 1.704439,4.63969 0.51419,6.21313 -0.97397,1.28754 -2.675411,1.5242 -3.556483,0.17139 -0.64543,-0.991 1.756818,-2.0139 1.756818,-2.0139"
       id="path53"
       sodipodi:nodetypes="ccscscsscssc" /><path
       style="fill:none;fill-opacity:1;stroke:#7e3a91;stroke-width:1.2;stroke-dasharray:none;stroke-opacity:1"
       d="m 96.636537,244.97892 c 0,0 -1.553832,4.05323 -2.38282,5.49943 -0.564718,0.98518 -1.980232,2.98428 -1.980232,2.98428 0,0 1.654356,0.27071 2.306245,0.70777 0.836975,0.56116 1.753815,2.01914 1.753815,2.01914 z"
       id="path54"
       sodipodi:nodetypes="cscscc" /><path
       sodipodi:type="star"
       style="display:inline;fill:#06578e;fill-opacity:1;stroke:#e0bf92;stroke-width:0;stroke-dasharray:none;stroke-opacity:1"
       id="path46-7-2"
       inkscape:flatsided="false"
       sodipodi:sides="4"
       sodipodi:cx="34.973221"
       sodipodi:cy="49.138069"
       sodipodi:r1="10.366878"
       sodipodi:r2="4.5406928"
       sodipodi:arg1="-0.0071427357"
       sodipodi:arg2="0.76627808"
       inkscape:rounded="0.02"
       inkscape:randomized="0"
       d="m 45.339834,49.064022 c 0.003,0.155826 -6.985643,3.111839 -7.095059,3.222829 -0.110843,0.112438 -3.039648,7.214812 -3.197507,7.217831 -0.155826,0.003 -3.111839,-6.985643 -3.222829,-7.095059 -0.112438,-0.110843 -7.214812,-3.039648 -7.217831,-3.197507 -0.003,-0.155826 6.985643,-3.111838 7.095059,-3.222828 0.110843,-0.112438 3.039648,-7.214813 3.197507,-7.217832 0.155826,-0.003 3.111838,6.985643 3.222828,7.095059 0.112438,0.110843 7.214813,3.039648 7.217832,3.197507 z"
       transform="matrix(0,0.66152121,-0.44213021,0,63.405912,236.86586)" /></g></svg>
