<?xml version="1.0" encoding="UTF-8" standalone="no"?>
<!-- Created with Inkscape (http://www.inkscape.org/) -->

<svg
   width="79mm"
   height="79mm"
   viewBox="0 0 79.000002 79"
   version="1.1"
   id="svg1"
   xml:space="preserve"
   inkscape:version="1.4 (86a8ad7, 2024-10-11)"
   sodipodi:docname="title-letters_color.svg"
   inkscape:export-filename="title-letters_color-C.svg"
   inkscape:export-xdpi="96"
   inkscape:export-ydpi="96"
   inkscape:export-batch-path="C:\Users\tarus.000\Documents\speksi\title-letters"
   inkscape:export-batch-name="title-letters"
   xmlns:inkscape="http://www.inkscape.org/namespaces/inkscape"
   xmlns:sodipodi="http://sodipodi.sourceforge.net/DTD/sodipodi-0.dtd"
   xmlns="http://www.w3.org/2000/svg"
   xmlns:svg="http://www.w3.org/2000/svg"><sodipodi:namedview
     id="namedview1"
     pagecolor="#505050"
     bordercolor="#eeeeee"
     borderopacity="1"
     inkscape:showpageshadow="0"
     inkscape:pageopacity="0"
     inkscape:pagecheckerboard="0"
     inkscape:deskcolor="#505050"
     inkscape:document-units="mm"
     inkscape:zoom="0.38592232"
     inkscape:cx="159.35849"
     inkscape:cy="897.84908"
     inkscape:window-width="1920"
     inkscape:window-height="1013"
     inkscape:window-x="-9"
     inkscape:window-y="-9"
     inkscape:window-maximized="1"
     inkscape:current-layer="g85" /><defs
     id="defs1" /><g
     inkscape:groupmode="layer"
     id="g75"
     inkscape:label="T alt"
     transform="translate(-117.9252,-403.5416)"
     style="display:inline;opacity:1"><rect
       style="fill:#f7e1ba;fill-opacity:1;stroke:#7e3a91;stroke-width:2;stroke-dasharray:none;stroke-opacity:1"
       id="rect66"
       width="77"
       height="77"
       x="118.9252"
       y="404.5416" /><path
       id="path66"
       style="display:inline;fill:#b376c4;fill-opacity:1;stroke:#7e3a91;stroke-width:2;stroke-dasharray:none;stroke-opacity:1"
       d="m 124.42875,410.05282 c 0.4124,0.29095 0.82225,1.34095 0,0 z m 0.0217,0.016 c 0.27752,18.07427 0.0319,36.15096 0.14986,54.22614 2.14473,-9.90506 3.59839,-21.6514 8.03156,-30.84757 2.95611,-5.1221 7.37153,-9.22707 12.7792,-11.37674 4.29492,-1.70733 9.15628,-1.20865 13.48794,-2.3709 -8.71856,4.91789 -16.40091,12.41761 -20.05858,21.76494 -2.00683,5.12853 -2.69366,11.14385 -0.99299,16.46439 1.86691,5.84062 5.65673,11.27785 10.73788,14.74299 5.48426,3.74006 12.68943,3.78058 19.06608,2.9201 6.27722,-0.84707 12.9232,-3.88018 15.71206,-10.00966 2.67389,-5.87681 2.9534,-13.65977 -1.76019,-18.51829 -4.60095,-4.03772 -12.88936,-2.44763 -15.61234,3.01583 -1.72599,4.75457 3.63476,9.54052 8.25095,8.02931 3.54064,0.20761 2.44896,-6.84797 5.29172,-5.3926 2.35172,5.00773 -1.54146,10.62183 -6.25781,12.45062 -5.12867,2.4471 -12.75482,-0.23702 -15.78225,-5.34853 -4.34101,-7.11618 -3.18863,-14.75288 -0.54135,-22.39082 3.31746,-8.88424 9.66839,-17.13022 18.61587,-20.83278 5.2143,-2.342 11.05714,-2.51171 16.50188,-4.12109 2.07449,-0.52387 -3.07852,-0.16319 -4.25703,-0.27613 -16.45553,-0.17824 -32.92196,1.42336 -49.35898,0.62954 -4.22088,-0.20385 -10.48584,-0.0482 -14.00348,-2.75875 z"
       sodipodi:nodetypes="ccsccssssssssssscscsscss" /><path
       style="display:inline;opacity:1;fill:none;fill-opacity:1;stroke:#7e3a91;stroke-width:1.5;stroke-dasharray:none;stroke-opacity:1"
       d="m 145.05247,425.75625 c 0,0 -6.7578,5.83046 -8.9203,9.82746 -3.07595,5.68536 -4.5293,12.43738 -4.34675,18.89892 0.11485,4.06543 1.8319,8.23382 3.93097,11.71733 2.75924,4.57909 10.99918,11.15036 10.99918,11.15036 h -23.81265 c 0,0 0.0839,-6.19128 2.29249,-8.47991 1.51034,-1.56505 3.6408,-1.83857 5.69846,-1.13392 2.57381,0.8814 5.2383,6.29005 5.2383,6.29005 l -8.68428,-0.0141 c 0,0 -0.0157,-2.45434 0.84177,-3.09071 0.71822,-0.53306 2.68223,0.0749 2.68223,0.0749"
       id="path67"
       sodipodi:nodetypes="csssccssccsc" /><path
       style="fill:none;fill-opacity:1;stroke:#7e3a91;stroke-width:1.5;stroke-dasharray:none;stroke-opacity:1"
       d="m 126.64112,407.60196 c 0,0 5.92074,1.569 8.22704,1.71397 13.10405,0.82367 57.93223,-0.85698 57.93223,-0.85698"
       id="path68"
       sodipodi:nodetypes="csc" /><path
       style="fill:none;fill-opacity:1;stroke:#7e3a91;stroke-width:1.5;stroke-dasharray:none;stroke-opacity:1"
       d="m 173.26106,460.90637 c 0,0 -5.29186,0.47963 -7.54146,-0.51418 -2.78355,-1.2297 -4.6236,-3.30775 -5.6561,-6.1703 -2.87532,-7.97171 2.40276,-27.32878 13.45465,-27.16639 8.38903,0.12326 10.31192,8.8911 6.85591,11.99777 -3.07363,2.76295 -6.87386,2.606 -9.76965,-0.34279 -1.5259,-1.55382 -0.96888,-7.5692 3.17084,-7.28437 3.87512,0.26662 1.88537,5.1419 1.88537,5.1419"
       id="path69"
       sodipodi:nodetypes="cssssssc" /><path
       style="fill:none;fill-opacity:1;stroke:#7e3a91;stroke-width:1.5;stroke-dasharray:none;stroke-opacity:1"
       d="m 166.49088,435.71103 c 0,0 0.0633,3.04334 0.69302,4.09898 0.52935,0.88745 2.30643,2.07131 2.30643,2.07131 0,0 -2.33958,0.66697 -3.28218,1.39034 -1.31557,1.00961 -3.05951,3.92297 -3.05951,3.92297 0,0 -0.0722,-4.13926 0.50987,-6.08584 0.53913,-1.80295 2.83237,-5.39776 2.83237,-5.39776 z"
       id="path70"
       sodipodi:nodetypes="cscscsc" /><path
       style="fill:none;fill-opacity:1;stroke:#7e3a91;stroke-width:1.5;stroke-dasharray:none;stroke-opacity:1"
       d="m 186.84083,436.95309 c 0,0 -1.24415,2.24426 -1.98741,3.09371 -0.95349,1.08968 -4.13302,2.54189 -4.13302,2.54189 0,0 2.82311,1.0512 3.79284,1.78838 1.08432,0.8243 2.56998,3.05944 2.56998,3.05944 0,0 0.4644,-2.44038 1.30258,-3.38789 1.02016,-1.15321 3.12109,-1.82351 3.12109,-1.82351 0,0 -2.16691,-0.8384 -3.18977,-1.71209 -0.91628,-0.78265 -1.47629,-3.55993 -1.47629,-3.55993 z"
       id="path71"
       sodipodi:nodetypes="cscscscsc" /><path
       style="fill:none;fill-opacity:1;stroke:#7e3a91;stroke-width:1.5;stroke-dasharray:none;stroke-opacity:1"
       d="m 168.54018,425.1365 c 0,0 3.92249,-1.9651 6.181,-1.87854 3.45056,0.13224 6.17753,2.61959 9.08973,3.45408 2.9122,0.83449 6.22033,-0.77751 7.45359,-3.39349 1.01536,-2.15378 0.28906,-4.84242 -1.75735,-6.05979 -1.20241,-0.71528 -8.6886,-0.896 -8.84735,2.7875 -0.0825,1.91407 2.5694,3.21088 4.48427,3.2723 0.37291,0.012 2.81476,-0.36667 2.77653,-1.74854 -0.0578,-2.09095 -2.95832,-1.64495 -2.95832,-1.64495"
       id="path72"
       sodipodi:nodetypes="cszsssssc" /><path
       style="fill:none;fill-opacity:1;stroke:#7e3a91;stroke-width:1.5;stroke-dasharray:none;stroke-opacity:1"
       d="m 182.43083,428.68377 c 0,0 1.88812,2.50497 3.08516,2.74236 2.39425,0.4748 2.8063,-2.96491 5.22763,-2.65666 2.73404,0.34805 3.38254,8.2388 0.68559,9.76961 -1.3316,0.75583 -2.33707,-2.78749 -2.65666,-4.28492 -0.17084,-0.80048 1.71398,-2.39954 1.71398,-2.39954"
       id="path73"
       sodipodi:nodetypes="cssssc" /><path
       style="fill:none;fill-opacity:1;stroke:#7e3a91;stroke-width:1.5;stroke-dasharray:none;stroke-opacity:1"
       d="m 192.4576,444.79507 c 0,0 -2.12387,3.50921 -2.51037,5.33408 -0.28847,1.36206 1.16274,5.31939 0.70008,10.32369 -1.82635,8.01899 -5.8592,13.91516 -13.4147,17.39238 0,0 12.15921,2.19103 14.4996,-1.73655 0.94267,-1.58197 1.78679,-4.29087 -0.3532,-6.4783 -0.88599,-0.90564 -1.0943,1.96974 -2.21273,4.04803 -1.14215,2.12238 -4.70734,2.25385 -4.70734,2.25385"
       id="path74"
       sodipodi:nodetypes="csscsssc" /><path
       sodipodi:type="star"
       style="display:inline;opacity:1;fill:#faa950;fill-opacity:1;stroke:#7e3a91;stroke-width:0;stroke-dasharray:none;stroke-opacity:1"
       id="path75"
       inkscape:flatsided="false"
       sodipodi:sides="4"
       sodipodi:cx="34.973221"
       sodipodi:cy="49.138069"
       sodipodi:r1="10.366878"
       sodipodi:r2="4.5406928"
       sodipodi:arg1="-0.0071427357"
       sodipodi:arg2="0.76627808"
       inkscape:rounded="0.02"
       inkscape:randomized="0"
       d="m 45.339834,49.064022 c 0.003,0.155826 -6.985643,3.111839 -7.095059,3.222829 -0.110843,0.112438 -3.039648,7.214812 -3.197507,7.217831 -0.155826,0.003 -3.111839,-6.985643 -3.222829,-7.095059 -0.112438,-0.110843 -7.214812,-3.039648 -7.217831,-3.197507 -0.003,-0.155826 6.985643,-3.111838 7.095059,-3.222828 0.110843,-0.112438 3.039648,-7.214813 3.197507,-7.217832 0.155826,-0.003 3.111838,6.985643 3.222828,7.095059 0.112438,0.110843 7.214813,3.039648 7.217832,3.197507 z"
       transform="matrix(0,0.6615212,-0.44213021,0,152.93559,398.78337)"
       inkscape:label="path46-7-2-9-5" /></g></svg>
