<?xml version="1.0" encoding="UTF-8" standalone="no"?>
<!-- Created with Inkscape (http://www.inkscape.org/) -->

<svg
   width="79.529167mm"
   height="79.529167mm"
   viewBox="0 0 79.529169 79.529167"
   version="1.1"
   id="svg1"
   xml:space="preserve"
   inkscape:version="1.4 (86a8ad7, 2024-10-11)"
   sodipodi:docname="title-letters_color_alt-bg.svg"
   inkscape:export-filename="title-letters_color-C.svg"
   inkscape:export-xdpi="96"
   inkscape:export-ydpi="96"
   inkscape:export-batch-path="C:\Users\tarus.000\Documents\speksi\title-letters"
   inkscape:export-batch-name="title-letters-light-bg"
   xmlns:inkscape="http://www.inkscape.org/namespaces/inkscape"
   xmlns:sodipodi="http://sodipodi.sourceforge.net/DTD/sodipodi-0.dtd"
   xmlns="http://www.w3.org/2000/svg"
   xmlns:svg="http://www.w3.org/2000/svg"><sodipodi:namedview
     id="namedview1"
     pagecolor="#505050"
     bordercolor="#eeeeee"
     borderopacity="1"
     inkscape:showpageshadow="0"
     inkscape:pageopacity="0"
     inkscape:pagecheckerboard="0"
     inkscape:deskcolor="#505050"
     inkscape:document-units="mm"
     inkscape:zoom="0.38592232"
     inkscape:cx="159.35849"
     inkscape:cy="905.62266"
     inkscape:window-width="1920"
     inkscape:window-height="1013"
     inkscape:window-x="-9"
     inkscape:window-y="-9"
     inkscape:window-maximized="1"
     inkscape:current-layer="g75" /><defs
     id="defs1" /><g
     inkscape:groupmode="layer"
     id="g4"
     inkscape:label="H"
     transform="translate(-20.834284,-307.35475)"
     style="display:inline;opacity:1"><rect
       style="fill:#f5e1bc;fill-opacity:1;stroke:#7f4927;stroke-width:2.0134;stroke-dasharray:none;stroke-opacity:1"
       id="rect4"
       width="77.51577"
       height="77.51577"
       x="21.840984"
       y="308.36145" /><path
       id="path9-6"
       style="display:inline;opacity:1;fill:#c67732;fill-opacity:1;stroke:#7f4927;stroke-width:2;stroke-dasharray:none;stroke-opacity:1"
       d="m 76.498827,316.58462 c -6.120227,-0.0689 -17.48024,0.52369 -31.360877,0.34262 l -0.01705,-5.2e-4 c -3.961515,3e-5 -7.923056,-0.013 -11.884546,5.2e-4 -2.934049,0.01 -3.718566,-0.0739 -7.00319,0.0501 0.190224,0.21363 2.354188,3.21192 4.621423,7.98504 0.04289,0.0903 0.09948,0.17665 0.161231,0.26149 1.42049,4.01548 1.933928,9.22797 2.009696,20.07164 6.6e-5,0.0119 -6.8e-5,0.031 0,0.0429 0.03338,5.15905 -0.923588,19.24535 -1.89084,23.40167 -0.968253,4.16062 -1.603346,5.47311 -4.620907,8.91264 0.09456,-0.004 0.251796,-0.002 0.359668,-0.005 -0.123428,0.14387 -0.227302,0.27338 -0.359668,0.42426 1.62452,-0.0632 5.143872,0 6.854362,0 h 13.671517 c 0.40225,0 5.332149,-0.0633 6.960299,0 -3.01756,-3.43953 -3.652657,-4.64659 -4.620907,-8.80721 -0.96826,-4.16062 -1.963687,-17.37709 -1.891357,-23.4208 0.0057,-0.47801 0.0056,-1.08802 0.0083,-1.62264 4.006695,-3.6863 8.635647,-5.36121 14.78411,-5.46633 4.965021,-0.0849 9.935701,3.86907 12.286589,9.23665 1.440235,3.28836 1.668102,5.47275 2.016931,10.19679 0.348829,4.72404 -0.53911,11.29663 0.797367,15.41973 1.91635,5.30259 5.068983,6.32498 9.80302,6.33501 3.960729,0.008 8.797591,-4.45383 7.396964,-8.28786 -1.449184,-3.967 -7.390198,-5.48278 -9.88105,-1.21698 -1.330797,2.27913 1.088566,6.42951 -1.260905,4.88187 -1.070243,-0.70499 -2.487016,-3.08168 -1.025778,-6.76238 1.461238,-3.6807 4.405073,-7.62401 6.816639,-11.20241 2.513456,-3.54163 4.566789,-8.73609 2.06654,-15.48226 -2.500249,-6.74617 -9.220647,-13.68213 -17.419092,-13.64568 -4.394042,0.0195 -14.498721,1.15258 -26.192417,9.74224 0.248119,-5.35566 -0.02831,-10.13973 3.964317,-13.50067 1.443172,-1.21484 3.584095,-2.03975 6.090067,-2.66392 6.53458,-1.40429 15.441931,-1.44951 21.139795,-3.8995 0.77458,-0.267 1.516068,-0.55332 2.173511,-0.88884 -0.08918,-0.0257 -0.205921,-0.0438 -0.33538,-0.0584 0.01758,-0.011 0.03678,-0.0209 0.05426,-0.032 -0.775044,-0.22309 -2.232531,-0.31914 -4.272607,-0.3421 z"
       sodipodi:nodetypes="sccscscscscccsscsscsssccsssscsscscccccss" /><path
       id="path9-6-9"
       style="display:none;opacity:1;fill:#fae6cd;fill-opacity:1;stroke:#7f4927;stroke-width:0;stroke-opacity:1"
       d="m 159.43602,315.79308 c -6.12023,-0.0689 -17.48024,0.52368 -31.36088,0.34261 h -0.0165 -11.86853 c -0.005,-1.5e-4 -0.011,1.5e-4 -0.016,0 -0.40245,-0.0117 -0.9202,-0.0105 -1.49499,-0.003 -1.72438,0.0223 -4.29138,0.10048 -5.50871,0.0532 0.0118,0.0132 0.0934,0.13095 0.11989,0.16536 -0.0323,-10e-4 -0.0893,-8.8e-4 -0.11989,-0.002 0.19022,0.21363 2.5478,3.42607 4.62142,8.03517 0.23286,0.5176 0.43315,1.1213 0.61185,1.77561 1.04205,4.71178 1.24865,14.01081 1.27848,18.2795 6e-5,0.0119 -7e-5,0.031 0,0.0429 0.0334,5.15905 -0.92359,19.24535 -1.89085,23.40167 -0.96825,4.16062 -1.60334,5.47311 -4.6209,8.91264 0.0946,-0.004 0.25179,-0.002 0.35967,-0.005 -0.12343,0.14387 -0.22731,0.27338 -0.35967,0.42426 1.62452,-0.0632 5.14387,0 6.85436,0 h 13.67152 c 0.40225,0 5.33215,-0.0633 6.9603,0 -3.01756,-3.43953 -3.65266,-4.64659 -4.62091,-8.80721 -0.96826,-4.16062 -1.96369,-17.37709 -1.89136,-23.4208 0.0151,-1.26096 0.0153,-2.75985 0.0222,-4.28036 0.29261,-5.35687 -6.3e-4,-13.60964 4.13928,-17.09456 5.63483,-4.74331 20.98772,-5.75704 29.40338,-7.47758 -0.77505,-0.22309 -2.23305,-0.31965 -4.27313,-0.34261 z" /><path
       style="fill:none;fill-opacity:1;stroke:#7f4927;stroke-width:1.8;stroke-dasharray:none;stroke-opacity:1"
       d="m 61.703347,348.26124 c -4.011005,0.32226 -6.493254,6.70204 -6.742485,9.24497 -0.249231,2.54293 0.580897,5.90808 3.028954,7.47708 2.632123,1.5813 6.215402,1.0657 8.154967,-0.45777 1.939565,-1.52347 2.823491,-3.72141 2.725608,-6.01438 -0.200401,-4.6945 -3.487148,-10.12345 -7.167044,-10.2499 z"
       id="path17"
       sodipodi:nodetypes="czczsc" /><path
       style="fill:none;fill-opacity:1;stroke:#7f4927;stroke-width:1.3;stroke-dasharray:none;stroke-opacity:1"
       d="m 50.590847,345.87999 0.264583,10.31874 c 0,0 1.625657,-6.03451 3.042708,-7.8052 1.742839,-2.17778 7.408334,-5.95313 7.408334,-5.95313 0,0 -4.272307,0.27546 -6.143877,0.87622 -1.700305,0.54577 -4.571748,2.56337 -4.571748,2.56337 z"
       id="path18"
       sodipodi:nodetypes="ccscsc" /><path
       style="fill:none;fill-opacity:1;stroke:#7f4927;stroke-width:1.5;stroke-dasharray:none;stroke-opacity:1"
       d="m 65.275222,344.29249 c 0,0 3.415478,2.48191 4.497916,4.23333 1.694285,2.74141 2.61185,6.04199 2.778125,9.26042 0.145913,2.8243 0.192028,6.13636 -1.5875,8.33437 -2.076813,2.56521 -5.827634,3.8511 -9.128125,3.83646 -3.120919,-0.0138 -8.598958,-3.70417 -8.598958,-3.70417 0,0 0.815894,4.06809 1.852083,5.82084 1.238132,2.09434 2.783396,4.35086 5.027084,5.29166 2.399688,1.00622 5.424893,0.91894 7.805208,-0.13229 1.940447,-0.85697 3.744038,-2.3352 4.233333,-3.63802 0.489295,-1.30282 0.198438,-4.10104 0.198438,-4.10104 0,0 -3.697199,4.23297 -7.540625,4.36562 -3.843426,0.13265 -6.35,-1.45521 -6.35,-1.45521"
       id="path19"
       sodipodi:nodetypes="csssscssszczc" /><path
       style="fill:none;fill-opacity:1;stroke:#7f4927;stroke-width:1.5;stroke-dasharray:none;stroke-opacity:1"
       d="m 26.381472,382.1279 52.122916,-0.13229 c 0,0 -1.404672,-4.99902 -3.968749,-5.29166 -1.518353,-0.1733 -3.262684,0.88006 -2.976563,2.38125 0.196246,1.02964 3.373438,0.7276 3.373438,0.7276"
       id="path20"
       sodipodi:nodetypes="ccssc" /><path
       style="fill:none;fill-opacity:1;stroke:#7f4927;stroke-width:1.2;stroke-dasharray:none;stroke-opacity:1"
       d="m 96.562201,376.37321 c 0,0 -1.249333,3.13036 -2.745053,4.10104 -1.49572,0.97068 -3.189083,1.8936 -4.431771,2.51355 l 6.978386,-0.13229 z"
       id="path21"
       sodipodi:nodetypes="czccc" /><path
       style="fill:none;fill-opacity:1;stroke:#7f4927;stroke-width:1.2;stroke-dasharray:none;stroke-opacity:1"
       d="m 95.754039,350.05863 c 0,0 -1.801364,6.5167 -3.554685,9.35442 -1.113543,1.80225 -3.367598,4.86432 -3.367598,4.86432 0,0 2.914074,-0.88922 4.490129,-1e-5 1.491422,0.84146 2.80633,4.30303 2.80633,4.30303 z"
       id="path22"
       sodipodi:nodetypes="cscscc" /><path
       style="display:inline;opacity:1;fill:none;fill-opacity:1;stroke:#7f4927;stroke-width:1.2;stroke-dasharray:none;stroke-opacity:1"
       d="m 95.902574,346.59673 c 0,0 -1.801364,-6.5167 -3.554685,-9.35442 -1.113543,-1.80225 -3.367598,-4.86432 -3.367598,-4.86432 0,0 2.914074,0.88922 4.490129,10e-6 1.491422,-0.84146 2.80633,-4.30303 2.80633,-4.30303 z"
       id="path22-7"
       sodipodi:nodetypes="cscscc" /><path
       style="fill:none;fill-opacity:1;stroke:#7f4927;stroke-width:1.5;stroke-dasharray:none;stroke-opacity:1"
       d="m 25.782876,373.81887 c 0,0 2.300691,-5.17511 2.899874,-7.95127 1.030366,-4.77392 1.216077,-14.68645 1.216077,-14.68645 0,0 -3.150346,0.80593 -4.209495,2.15152 -1.429247,1.81577 -1.883301,6.42874 0.374177,6.92229 1.30809,0.28598 1.403165,-4.20949 1.403165,-4.20949"
       id="path24"
       sodipodi:nodetypes="cscssc" /><path
       style="display:inline;opacity:1;fill:none;fill-opacity:1;stroke:#7f4927;stroke-width:1.5;stroke-dasharray:none;stroke-opacity:1"
       d="m 26.024465,322.39392 c 0,0 2.300691,5.17511 2.899874,7.95127 1.030366,4.77392 1.216077,14.68645 1.216077,14.68645 0,0 -3.150346,-0.80593 -4.209495,-2.15152 -1.429247,-1.81577 -1.883301,-6.42874 0.374177,-6.92229 1.30809,-0.28598 1.403165,4.20949 1.403165,4.20949"
       id="path24-1"
       sodipodi:nodetypes="cscssc" /><path
       style="fill:none;fill-opacity:1;stroke:#7f4927;stroke-width:1.2;stroke-dasharray:none;stroke-opacity:1"
       d="m 29.805283,348.24917 c 0,0 -1.875746,-0.43655 -2.652514,-0.96808 -0.844175,-0.57765 -2.211792,-2.11886 -2.211792,-2.11886 v 5.70619 c 0,0 1.323453,-1.57552 2.09473,-1.98729 0.835328,-0.44597 2.769576,-0.63196 2.769576,-0.63196 z"
       id="path25"
       sodipodi:nodetypes="csccsc" /><path
       style="fill:none;fill-opacity:1;stroke:#7f4927;stroke-width:1.5;stroke-dasharray:none;stroke-opacity:1"
       d="m 25.689333,312.04751 69.409896,0.0935 c 0,0 1.397455,7.21403 -0.935448,9.72862 -1.934054,2.08469 -4.908066,1.07189 -6.922281,-0.93545 -1.770352,-1.76431 -1.554203,-3.00047 0,-4.95786 1.103179,-1.38937 3.604269,-1.11938 5.425572,-0.56121 -0.953282,2.34838 -2.619242,3.8353 -2.619242,3.8353"
       id="path26"
       sodipodi:nodetypes="ccssscc" /><path
       style="fill:none;fill-opacity:1;stroke:#7f4927;stroke-width:1.5;stroke-dasharray:none;stroke-opacity:1"
       d="m 67.065935,323.31551 c 0,0 -7.40048,0.27129 -11.161782,2.60868 -2.372654,1.47447 -5.051395,6.08038 -5.051395,6.08038 0,0 5.520675,-4.8459 11.498893,-5.3085 5.978218,-0.46259 19.557827,-5.82328 19.557827,-5.82328 0,0 3.981399,4.44582 5.706205,5.23849 2.862859,1.31569 7.577091,-0.74836 7.577091,-0.74836 0,0 -1.798484,3.14954 -3.367596,3.83532 -2.550588,1.11473 -5.929702,-0.2511 -8.044813,-1.49672 -1.44441,-0.85063 -3.274052,-3.55468 -3.274052,-3.55468"
       id="path27"
       sodipodi:nodetypes="csczcscssc" /><path
       sodipodi:type="star"
       style="display:inline;opacity:1;fill:#faa950;fill-opacity:1;stroke:#5db48a;stroke-width:0;stroke-dasharray:none;stroke-opacity:1"
       id="path46-7-2-9"
       inkscape:flatsided="false"
       sodipodi:sides="4"
       sodipodi:cx="34.973221"
       sodipodi:cy="49.138069"
       sodipodi:r1="10.366878"
       sodipodi:r2="4.5406928"
       sodipodi:arg1="-0.0071427357"
       sodipodi:arg2="0.76627808"
       inkscape:rounded="0.02"
       inkscape:randomized="0"
       d="m 45.339834,49.064022 c 0.003,0.155826 -6.985643,3.111839 -7.095059,3.222829 -0.110843,0.112438 -3.039648,7.214812 -3.197507,7.217831 -0.155826,0.003 -3.111839,-6.985643 -3.222829,-7.095059 -0.112438,-0.110843 -7.214812,-3.039648 -7.217831,-3.197507 -0.003,-0.155826 6.985643,-3.111838 7.095059,-3.222828 0.110843,-0.112438 3.039648,-7.214813 3.197507,-7.217832 0.155826,-0.003 3.111838,6.985643 3.222828,7.095059 0.112438,0.110843 7.214813,3.039648 7.217832,3.197507 z"
       transform="matrix(0,0.6615212,-0.44213021,0,62.025174,318.90821)" /></g></svg>
