<?xml version="1.0" encoding="UTF-8" standalone="no"?>
<!-- Created with Inkscape (http://www.inkscape.org/) -->

<svg
   width="79mm"
   height="79mm"
   viewBox="0 0 79.000002 79"
   version="1.1"
   id="svg1"
   xml:space="preserve"
   inkscape:version="1.4 (86a8ad7, 2024-10-11)"
   sodipodi:docname="title-letters_color.svg"
   inkscape:export-filename="title-letters_color-C.svg"
   inkscape:export-xdpi="96"
   inkscape:export-ydpi="96"
   inkscape:export-batch-path="C:\Users\tarus.000\Documents\speksi\title-letters"
   inkscape:export-batch-name="title-letters"
   xmlns:inkscape="http://www.inkscape.org/namespaces/inkscape"
   xmlns:sodipodi="http://sodipodi.sourceforge.net/DTD/sodipodi-0.dtd"
   xmlns="http://www.w3.org/2000/svg"
   xmlns:svg="http://www.w3.org/2000/svg"><sodipodi:namedview
     id="namedview1"
     pagecolor="#505050"
     bordercolor="#eeeeee"
     borderopacity="1"
     inkscape:showpageshadow="0"
     inkscape:pageopacity="0"
     inkscape:pagecheckerboard="0"
     inkscape:deskcolor="#505050"
     inkscape:document-units="mm"
     inkscape:zoom="0.38592232"
     inkscape:cx="159.35849"
     inkscape:cy="897.84908"
     inkscape:window-width="1920"
     inkscape:window-height="1013"
     inkscape:window-x="-9"
     inkscape:window-y="-9"
     inkscape:window-maximized="1"
     inkscape:current-layer="g85" /><defs
     id="defs1"><inkscape:path-effect
       effect="mirror_symmetry"
       start_point="87.688493,50.994827"
       end_point="58.513881,50.994827"
       center_point="73.101187,50.994827"
       id="path-effect44"
       is_visible="true"
       lpeversion="1.2"
       lpesatellites=""
       mode="free"
       discard_orig_path="false"
       fuse_paths="true"
       oposite_fuse="false"
       split_items="false"
       split_open="false"
       link_styles="false" /></defs><g
     inkscape:groupmode="layer"
     id="g43"
     inkscape:label="C"
     transform="translate(-118.56032,-8.5216293)"
     style="display:inline;opacity:1"><rect
       style="display:inline;fill:#d5a03a;fill-opacity:1;stroke:#15304e;stroke-width:2;stroke-dasharray:none;stroke-opacity:1"
       id="rect6"
       width="77"
       height="77"
       x="119.56032"
       y="9.5216293" /><path
       d="m 27.797169,50.994827 c 0.01244,4.200705 0.644047,8.503172 1.692246,12.574734 0.349468,1.357454 4.553307,16.128354 22.916658,20.038376 8.316907,1.77088 15.307559,0.0174 20.334392,-3.914569 4.670873,-3.653543 7.593471,-9.455895 9.647729,-9.258327 2.800471,0.269335 -1.688078,1.982675 -2.08211,4.592302 -0.737506,4.884411 4.839536,7.432454 8.457246,5.25315 3.49646,-2.106258 3.270816,-9.448997 0.057,-11.623476 -4.08626,-2.764781 -8.740992,-1.754838 -15.573481,2.162707 -6.888032,3.949393 -12.511511,3.6858 -16.923595,0.820651 -4.283654,-2.781748 -8.958238,-7.109251 -9.357963,-20.645548 0.399725,-13.536297 5.074309,-17.8638 9.357963,-20.645548 4.412084,-2.865149 10.035563,-3.128742 16.923595,0.820651 6.832489,3.917545 11.487221,4.927488 15.573481,2.162707 3.213816,-2.174479 3.43946,-9.517218 -0.057,-11.623476 -3.61771,-2.179304 -9.194752,0.368739 -8.457246,5.25315 0.394032,2.609627 4.882581,4.322967 2.08211,4.592302 -2.054258,0.197568 -4.976856,-5.604784 -9.647729,-9.258327 -5.026833,-3.931969 -12.017485,-5.685449 -20.334392,-3.914569 -18.363351,3.910022 -22.56719,18.680922 -22.916658,20.038376 -1.048199,4.071562 -1.67981,8.374029 -1.692246,12.574734 z"
       style="display:inline;opacity:1;fill:#06578e;fill-opacity:1;stroke:#15304e;stroke-width:1.96106;stroke-dasharray:none;stroke-opacity:1"
       id="path6"
       sodipodi:nodetypes="csssssssszc"
       transform="matrix(1.0240131,0,0,1.0157219,96.734467,-3.476974)"
       inkscape:original-d="m 27.797046,50.942295 c 0.0073,4.21736 0.6398,8.53873 1.692369,12.627266 0.349468,1.357454 4.553307,16.128354 22.916658,20.038376 8.316907,1.77088 15.307559,0.0174 20.334392,-3.914569 4.670873,-3.653543 7.593471,-9.455895 9.647729,-9.258327 2.800471,0.269335 -1.688078,1.982675 -2.08211,4.592302 -0.737506,4.884411 4.839536,7.432454 8.457246,5.25315 3.49646,-2.106258 3.270816,-9.448997 0.057,-11.623476 -4.08626,-2.764781 -8.740992,-1.754838 -15.573481,2.162707 -6.888032,3.949393 -12.511511,3.6858 -16.923595,0.820651 -4.412084,-2.865149 -9.238891,-7.37013 -9.382262,-21.8881"
       inkscape:path-effect="#path-effect44" /><path
       style="fill:none;stroke:#15304e;stroke-width:1.5;stroke-dasharray:none;stroke-opacity:1"
       d="m 165.26196,83.708673 c 0,0 4.66854,-0.503904 7.33022,-2.439655 1.63028,-1.185649 3.98864,-4.014904 3.98864,-4.014904 0,0 2.78386,2.914228 4.17579,3.763304 1.72621,1.052992 4.61738,2.410623 4.61738,2.410623 z"
       id="path23"
       sodipodi:nodetypes="cscscc" /><path
       style="display:inline;opacity:1;fill:none;stroke:#15304e;stroke-width:1.5;stroke-dasharray:none;stroke-opacity:1"
       d="m 164.7737,12.569526 c 0,0 4.66854,0.503904 7.33022,2.439655 1.63028,1.185649 3.98865,4.014904 3.98865,4.014904 0,0 2.78385,-2.914228 4.17578,-3.763304 1.72622,-1.052992 4.61738,-2.410623 4.61738,-2.410623 z"
       id="path37"
       sodipodi:nodetypes="cscscc" /><path
       style="fill:none;stroke:#15304e;stroke-width:1.3;stroke-dasharray:none;stroke-opacity:1"
       d="m 189.48994,14.297228 c 0,0 1.31733,-0.361949 1.59026,0.09354 0.45893,0.765934 0.55786,2.031696 -0.28064,2.338608 -0.96939,0.354823 -2.49964,-0.07744 -2.89987,-1.028988 -0.47411,-1.127204 -0.61746,-2.371395 0.37418,-3.086962 1.46678,-1.058437 5.42557,-0.187094 5.42557,-0.187094 0,0 -0.53763,5.986502 -0.65481,8.699625 -0.13331,3.086603 -0.0935,8.699621 -0.0935,8.699621 l 0.30921,8.07359 c 0,0 -1.19512,-1.928866 -1.99334,-2.720506 -0.66834,-0.662834 -2.29158,-1.650112 -2.29158,-1.650112 l 1.88537,-1.713967"
       id="path38"
       sodipodi:nodetypes="csssscsccscc" /><path
       d="m 193.2881,67.346147 0.30921,-8.07359 c 0,0 -1.19512,1.928866 -1.99334,2.720506 -0.66834,0.662834 -2.29158,1.650112 -2.29158,1.650112 l 1.88537,1.713967"
       style="fill:none;stroke:#15304e;stroke-width:1.3;stroke-dasharray:none;stroke-opacity:1"
       id="path1-23" /><path
       style="display:inline;opacity:1;fill:none;stroke:#15304e;stroke-width:1.3;stroke-dasharray:none;stroke-opacity:1"
       d="m 189.84563,81.830806 c 0,0 1.31734,0.361949 1.59026,-0.09354 0.45893,-0.765934 0.55786,-2.031696 -0.28064,-2.338608 -0.96939,-0.354823 -2.49964,0.07744 -2.89987,1.028988 -0.47411,1.127204 -0.61746,2.371395 0.37418,3.086962 1.46678,1.058437 5.42557,0.187094 5.42557,0.187094 0,0 -0.53763,-5.986502 -0.65481,-8.699625 -0.13331,-3.086603 -0.0935,-8.699621 -0.0935,-8.699621"
       id="path39"
       sodipodi:nodetypes="csssscsc" /><path
       style="fill:none;fill-opacity:1;stroke:#15304e;stroke-width:1.5;stroke-dasharray:none;stroke-opacity:1"
       d="m 123.29115,62.378429 0.24239,20.54269 h 17.14921 c 0,0 -7.19657,-3.553629 -10.36225,-7.271747 -3.3907,-3.982419 -3.93886,-6.059792 -3.93886,-6.059792 0,0 -0.98514,6.669367 1.45435,9.029089 0.94381,0.91295 2.66631,1.09076 2.66631,1.09076"
       id="path40"
       sodipodi:nodetypes="cccscsc" /><path
       style="display:inline;opacity:1;fill:none;fill-opacity:1;stroke:#15304e;stroke-width:1.5;stroke-dasharray:none;stroke-opacity:1"
       d="m 123.22759,33.627113 0.24239,-20.54269 h 17.14921 c 0,0 -7.19657,3.553629 -10.36225,7.271747 -3.3907,3.982419 -3.93886,6.059792 -3.93886,6.059792 0,0 -0.98514,-6.669367 1.45435,-9.029089 0.94381,-0.91295 2.66631,-1.09076 2.66631,-1.09076"
       id="path41"
       sodipodi:nodetypes="cccscsc" /><path
       sodipodi:type="star"
       style="display:inline;opacity:1;fill:#b376c4;fill-opacity:1;stroke:#000000;stroke-width:0;stroke-dasharray:none;stroke-opacity:1"
       id="path43"
       inkscape:flatsided="false"
       sodipodi:sides="4"
       sodipodi:cx="34.973221"
       sodipodi:cy="49.138069"
       sodipodi:r1="10.366878"
       sodipodi:r2="4.5406928"
       sodipodi:arg1="-0.0071427357"
       sodipodi:arg2="0.76627808"
       inkscape:rounded="0.02"
       inkscape:randomized="0"
       d="m 45.339834,49.064022 c 0.003,0.155826 -6.985643,3.111839 -7.095059,3.222829 -0.110843,0.112438 -3.039648,7.214812 -3.197507,7.217831 -0.155826,0.003 -3.111839,-6.985643 -3.222829,-7.095059 -0.112438,-0.110843 -7.214812,-3.039648 -7.217831,-3.197507 -0.003,-0.155826 6.985643,-3.111838 7.095059,-3.222828 0.110843,-0.112438 3.039648,-7.214813 3.197507,-7.217832 0.155826,-0.003 3.111838,6.985643 3.222828,7.095059 0.112438,0.110843 7.214813,3.039648 7.217832,3.197507 z"
       transform="matrix(0,-0.6615212,0.44213021,0,113.74122,71.461499)" /><path
       style="display:inline;fill:none;fill-opacity:1;stroke:#15304e;stroke-width:1.7;stroke-dasharray:none;stroke-opacity:1"
       d="m 166.75727,39.467514 c -4.011,0.32226 -6.49325,6.702037 -6.74248,9.244967 -0.24923,2.542927 0.58089,5.908074 3.02895,7.477074 2.63212,1.5813 6.2154,1.0657 8.15497,-0.45777 1.93956,-1.523467 2.82349,-3.721407 2.7256,-6.014377 -0.2004,-4.694497 -3.48714,-10.123444 -7.16704,-10.249894 z"
       id="path17-8"
       sodipodi:nodetypes="czczsc" /><path
       style="fill:none;stroke:#15304e;stroke-width:1.5;stroke-dasharray:none;stroke-opacity:1"
       d="m 153.09775,42.437022 c 0,0 -0.68262,-2.7243 -2.05676,-2.485255 -1.92531,0.334927 -2.83347,3.004586 -1.88536,4.713411 0.86816,1.564728 3.67382,2.565721 5.1419,1.542571 5.21687,-3.635798 1.87507,-14.683895 12.13922,-14.735961 10.26415,-0.05207 8.61772,10.341079 13.02615,14.140232 2.30394,1.985525 6.10226,1.949457 8.56984,0.171399 2.17905,-1.570153 3.1322,-5.205296 1.97106,-7.627157 -1.15032,-2.399292 -4.2884,-3.598808 -6.42738,-1.799667 -2.13898,1.799141 -2.518,4.280881 -0.82528,5.622332 2.9915,2.370705 4.16752,-2.194394 4.16752,-2.194394"
       id="path2"
       sodipodi:nodetypes="cssszssszsc" /><path
       style="display:inline;fill:none;stroke:#15304e;stroke-width:1.5;stroke-dasharray:none;stroke-opacity:1"
       d="m 152.95524,55.041512 c 0,0 -0.68262,2.7243 -2.05676,2.485255 -1.92531,-0.334927 -2.83347,-3.004586 -1.88536,-4.713411 0.86816,-1.564728 3.67382,-2.565721 5.1419,-1.542571 5.21687,3.635798 1.87507,14.683895 12.13922,14.735961 10.26415,0.05207 8.61772,-10.341079 13.02615,-14.140232 2.30394,-1.985525 6.10226,-1.949457 8.56984,-0.171399 2.17905,1.570153 3.1322,5.205296 1.97106,7.627157 -1.15032,2.399292 -4.2884,3.598808 -6.42738,1.799667 -2.13898,-1.799141 -2.518,-4.280881 -0.82528,-5.622332 2.9915,-2.370705 4.16752,2.194394 4.16752,2.194394"
       id="path2-1"
       sodipodi:nodetypes="cssszssszsc" /><path
       style="fill:none;stroke:#15304e;stroke-width:1.3;stroke-dasharray:none;stroke-opacity:1"
       d="m 150.41115,36.270899 c 0,0 2.44045,-3.236049 3.7841,-4.098979 3.96624,-2.547234 6.6711,-3.356781 6.6711,-3.356781 0,0 -2.80126,2.959818 -3.98764,5.039616 -0.68083,1.193523 -1.66845,4.729999 -1.66845,4.729999 0,0 -0.9879,-1.457248 -1.61039,-1.75738 -0.97721,-0.471153 -3.18872,-0.556475 -3.18872,-0.556475 z"
       id="path3"
       sodipodi:nodetypes="cscscsc" /><path
       style="display:inline;fill:none;stroke:#15304e;stroke-width:1.3;stroke-dasharray:none;stroke-opacity:1"
       d="m 150.16549,60.387449 c 0,0 2.44045,3.236049 3.7841,4.098979 3.96624,2.547234 6.6711,3.356781 6.6711,3.356781 0,0 -2.80126,-2.959818 -3.98764,-5.039616 -0.68083,-1.193523 -1.66845,-4.729999 -1.66845,-4.729999 0,0 -0.9879,1.457248 -1.61039,1.75738 -0.97721,0.471153 -3.18872,0.556475 -3.18872,0.556475 z"
       id="path3-7"
       sodipodi:nodetypes="cscscsc" /><path
       style="fill:none;stroke:#15304e;stroke-width:1.3;stroke-dasharray:none;stroke-opacity:1"
       d="m 188.80402,48.712139 c 0,0 1.58239,-1.063657 2.36633,-1.959155 0.95376,-1.089482 1.91859,-2.754256 1.91859,-2.754256 l -0.19738,9.875217 c 0,0 -0.23883,-2.029131 -1.58207,-3.297035 -1.13807,-1.074243 -2.50547,-1.864771 -2.50547,-1.864771 z"
       id="path5"
       sodipodi:nodetypes="csccsc" /></g></svg>
