<?xml version="1.0" encoding="UTF-8" standalone="no"?>
<!-- Created with Inkscape (http://www.inkscape.org/) -->

<svg
   width="79mm"
   height="79mm"
   viewBox="0 0 79.000002 79"
   version="1.1"
   id="svg1"
   xml:space="preserve"
   inkscape:version="1.4 (86a8ad7, 2024-10-11)"
   sodipodi:docname="title-letters_color.svg"
   inkscape:export-filename="title-letters_color-C.svg"
   inkscape:export-xdpi="96"
   inkscape:export-ydpi="96"
   inkscape:export-batch-path="C:\Users\tarus.000\Documents\speksi\title-letters"
   inkscape:export-batch-name="title-letters"
   xmlns:inkscape="http://www.inkscape.org/namespaces/inkscape"
   xmlns:sodipodi="http://sodipodi.sourceforge.net/DTD/sodipodi-0.dtd"
   xmlns="http://www.w3.org/2000/svg"
   xmlns:svg="http://www.w3.org/2000/svg"><sodipodi:namedview
     id="namedview1"
     pagecolor="#505050"
     bordercolor="#eeeeee"
     borderopacity="1"
     inkscape:showpageshadow="0"
     inkscape:pageopacity="0"
     inkscape:pagecheckerboard="0"
     inkscape:deskcolor="#505050"
     inkscape:document-units="mm"
     inkscape:zoom="0.38592232"
     inkscape:cx="159.35849"
     inkscape:cy="897.84908"
     inkscape:window-width="1920"
     inkscape:window-height="1013"
     inkscape:window-x="-9"
     inkscape:window-y="-9"
     inkscape:window-maximized="1"
     inkscape:current-layer="g85" /><defs
     id="defs1" /><g
     inkscape:groupmode="layer"
     id="g5"
     inkscape:label="T"
     transform="translate(-22.146055,-403.5416)"
     style="display:inline;opacity:1"><rect
       style="fill:#d5a03a;fill-opacity:1;stroke:#742926;stroke-width:2;stroke-dasharray:none;stroke-opacity:1"
       id="rect5"
       width="77"
       height="77"
       x="23.146055"
       y="404.5416" /><path
       id="path9-6-9-7"
       style="display:inline;fill:#d73f2a;fill-opacity:1;stroke:#742926;stroke-width:2;stroke-dasharray:none;stroke-opacity:1"
       d="m 28.649552,410.05282 c 0.412399,0.29095 0.822253,1.34095 0,0 z m 0.0217,0.016 c 0.277526,18.07427 0.03192,36.15096 0.149862,54.22614 2.144723,-9.90506 3.598384,-21.6514 8.031552,-30.84757 2.956111,-5.1221 7.371528,-9.22707 12.779192,-11.37674 4.294918,-1.70733 9.156282,-1.20865 13.487937,-2.3709 -8.718559,4.91789 -16.400899,12.41761 -20.058568,21.76494 -2.006826,5.12853 -2.693659,11.14385 -0.99299,16.46439 1.866911,5.84062 5.656729,11.27785 10.737868,14.74299 5.484264,3.74006 12.689426,3.78058 19.06607,2.9201 6.27722,-0.84707 12.923165,-3.88018 15.712007,-10.00966 2.673879,-5.87681 2.953385,-13.65977 -1.760181,-18.51829 -4.600919,-4.03772 -12.889311,-2.44763 -15.612291,3.01583 -1.725992,4.75457 3.634754,9.54052 8.250945,8.02931 3.540621,0.20761 2.448951,-6.84797 5.291687,-5.3926 2.351713,5.00773 -1.541453,10.62183 -6.257778,12.45062 -5.128668,2.4471 -12.754807,-0.23702 -15.782239,-5.34853 -4.341006,-7.11618 -3.188631,-14.75288 -0.541352,-22.39082 3.317464,-8.88424 9.668382,-17.13022 18.615854,-20.83278 5.214269,-2.342 11.057075,-2.51171 16.501784,-4.12109 2.074481,-0.52387 -3.078506,-0.16319 -4.256999,-0.27613 -16.455458,-0.17824 -32.921876,1.42336 -49.358886,0.62954 -4.220883,-0.20385 -10.485833,-0.0482 -14.003474,-2.75875 z"
       sodipodi:nodetypes="ccsccssssssssssscscsscss" /><path
       style="display:inline;opacity:1;fill:none;fill-opacity:1;stroke:#742926;stroke-width:1.5;stroke-dasharray:none;stroke-opacity:1"
       d="m 49.27326,425.75625 c 0,0 -6.7578,5.83046 -8.920293,9.82746 -3.07595,5.68536 -4.529297,12.43738 -4.346753,18.89892 0.114852,4.06543 1.831908,8.23382 3.930975,11.71733 2.759236,4.57909 10.999173,11.15036 10.999173,11.15036 H 27.123721 c 0,0 0.08386,-6.19128 2.292491,-8.47991 1.510341,-1.56505 3.640797,-1.83857 5.698459,-1.13392 2.573805,0.8814 5.238296,6.29005 5.238296,6.29005 l -8.684273,-0.0141 c 0,0 -0.01565,-2.45434 0.841768,-3.09071 0.718223,-0.53306 2.682231,0.0749 2.682231,0.0749"
       id="path28"
       sodipodi:nodetypes="csssccssccsc" /><path
       style="fill:none;fill-opacity:1;stroke:#742926;stroke-width:1.5;stroke-dasharray:none;stroke-opacity:1"
       d="m 30.861917,407.60196 c 0,0 5.920739,1.569 8.227044,1.71397 13.104037,0.82367 57.932102,-0.85698 57.932102,-0.85698"
       id="path29"
       sodipodi:nodetypes="csc" /><path
       style="fill:none;fill-opacity:1;stroke:#742926;stroke-width:1.5;stroke-dasharray:none;stroke-opacity:1"
       d="m 77.481834,460.90637 c 0,0 -5.291858,0.47963 -7.541458,-0.51418 -2.783541,-1.2297 -4.623595,-3.30775 -5.65609,-6.1703 -2.875319,-7.97171 2.402757,-27.32878 13.454645,-27.16639 8.388977,0.12326 10.31186,8.8911 6.85587,11.99777 -3.073616,2.76295 -6.87382,2.606 -9.769617,-0.34279 -1.525901,-1.55382 -0.968882,-7.5692 3.170842,-7.28437 3.875103,0.26662 1.885364,5.1419 1.885364,5.1419"
       id="path30"
       sodipodi:nodetypes="cssssssc" /><path
       style="fill:none;fill-opacity:1;stroke:#742926;stroke-width:1.5;stroke-dasharray:none;stroke-opacity:1"
       d="m 70.711663,435.71103 c 0,0 0.06333,3.04334 0.693016,4.09898 0.529352,0.88745 2.306428,2.07131 2.306428,2.07131 0,0 -2.339582,0.66697 -3.282175,1.39034 -1.315571,1.00961 -3.059507,3.92297 -3.059507,3.92297 0,0 -0.07222,-4.13926 0.509865,-6.08584 0.53913,-1.80295 2.832373,-5.39776 2.832373,-5.39776 z"
       id="path31"
       sodipodi:nodetypes="cscscsc" /><path
       style="fill:none;fill-opacity:1;stroke:#742926;stroke-width:1.5;stroke-dasharray:none;stroke-opacity:1"
       d="m 91.061529,436.95309 c 0,0 -1.244134,2.24426 -1.987397,3.09371 -0.953479,1.08968 -4.132993,2.54189 -4.132993,2.54189 0,0 2.823089,1.0512 3.792814,1.78838 1.084317,0.8243 2.569966,3.05944 2.569966,3.05944 0,0 0.464398,-2.44038 1.302576,-3.38789 1.020158,-1.15321 3.121073,-1.82351 3.121073,-1.82351 0,0 -2.166898,-0.8384 -3.189748,-1.71209 -0.916283,-0.78265 -1.476291,-3.55993 -1.476291,-3.55993 z"
       id="path32"
       sodipodi:nodetypes="cscscscsc" /><path
       style="fill:none;fill-opacity:1;stroke:#742926;stroke-width:1.5;stroke-dasharray:none;stroke-opacity:1"
       d="m 72.760961,425.1365 c 0,0 3.922487,-1.9651 6.180987,-1.87854 3.450543,0.13224 6.1775,2.61959 9.089684,3.45408 2.912184,0.83449 6.220291,-0.77751 7.453543,-3.39349 1.015359,-2.15378 0.289057,-4.84242 -1.757339,-6.05979 -1.202396,-0.71528 -8.688546,-0.896 -8.847294,2.7875 -0.08249,1.91407 2.569379,3.21088 4.484245,3.2723 0.372901,0.012 2.814736,-0.36667 2.77651,-1.74854 -0.05784,-2.09095 -2.958305,-1.64495 -2.958305,-1.64495"
       id="path33"
       sodipodi:nodetypes="cszsssssc" /><path
       style="fill:none;fill-opacity:1;stroke:#742926;stroke-width:1.5;stroke-dasharray:none;stroke-opacity:1"
       d="m 86.651562,428.68377 c 0,0 1.888105,2.50497 3.085141,2.74236 2.394234,0.4748 2.806284,-2.96491 5.227601,-2.65666 2.734022,0.34805 3.382519,8.2388 0.685586,9.76961 -1.331599,0.75583 -2.337064,-2.78749 -2.656648,-4.28492 -0.170839,-0.80048 1.713967,-2.39954 1.713967,-2.39954"
       id="path34"
       sodipodi:nodetypes="cssssc" /><path
       style="fill:none;fill-opacity:1;stroke:#742926;stroke-width:1.5;stroke-dasharray:none;stroke-opacity:1"
       d="m 96.67827,444.79507 c 0,0 -2.123858,3.50921 -2.510352,5.33408 -0.288476,1.36206 1.162732,5.31939 0.700068,10.32369 -1.826334,8.01899 -5.85916,13.91516 -13.414618,17.39238 0,0 12.159137,2.19103 14.499513,-1.73655 0.942667,-1.58197 1.786781,-4.29087 -0.353191,-6.4783 -0.885993,-0.90564 -1.094298,1.96974 -2.21272,4.04803 -1.142146,2.12238 -4.707315,2.25385 -4.707315,2.25385"
       id="path35"
       sodipodi:nodetypes="csscsssc" /><path
       sodipodi:type="star"
       style="display:inline;opacity:1;fill:#516035;fill-opacity:1;stroke:#000000;stroke-width:0;stroke-dasharray:none;stroke-opacity:1"
       id="path46-7-2-9-5"
       inkscape:flatsided="false"
       sodipodi:sides="4"
       sodipodi:cx="34.973221"
       sodipodi:cy="49.138069"
       sodipodi:r1="10.366878"
       sodipodi:r2="4.5406928"
       sodipodi:arg1="-0.0071427357"
       sodipodi:arg2="0.76627808"
       inkscape:rounded="0.02"
       inkscape:randomized="0"
       d="m 45.339834,49.064022 c 0.003,0.155826 -6.985643,3.111839 -7.095059,3.222829 -0.110843,0.112438 -3.039648,7.214812 -3.197507,7.217831 -0.155826,0.003 -3.111839,-6.985643 -3.222829,-7.095059 -0.112438,-0.110843 -7.214812,-3.039648 -7.217831,-3.197507 -0.003,-0.155826 6.985643,-3.111838 7.095059,-3.222828 0.110843,-0.112438 3.039648,-7.214813 3.197507,-7.217832 0.155826,-0.003 3.111838,6.985643 3.222828,7.095059 0.112438,0.110843 7.214813,3.039648 7.217832,3.197507 z"
       transform="matrix(0,0.6615212,-0.44213021,0,57.156373,398.78337)"
       inkscape:label="path46-7-2-9-5" /></g></svg>
